%TF.GenerationSoftware,Altium Limited,Altium Designer,22.10.1 (41)*%
G04 Layer_Physical_Order=1*
G04 Layer_Color=255*
%FSLAX45Y45*%
%MOMM*%
%TF.SameCoordinates,7B7B0447-9336-45C8-9B88-AABF40CF29D0*%
%TF.FilePolarity,Positive*%
%TF.FileFunction,Copper,L1,Top,Signal*%
%TF.Part,Single*%
G01*
G75*
%TA.AperFunction,Conductor*%
%ADD10C,0.25400*%
%TA.AperFunction,SMDPad,CuDef*%
%ADD11R,0.95620X1.20620*%
%ADD12R,1.20620X0.95620*%
%ADD13R,3.00000X3.00000*%
%ADD14R,1.46170X0.53340*%
%ADD15R,1.52500X0.65000*%
%ADD16R,0.75000X1.00000*%
%ADD17R,0.95000X0.95000*%
%ADD18R,0.70000X0.70000*%
%ADD19R,0.70000X0.70000*%
%ADD20O,1.45000X0.55000*%
%ADD21O,0.55000X1.45000*%
%ADD22R,0.74000X2.79000*%
%ADD23R,0.75000X0.60000*%
%TA.AperFunction,ConnectorPad*%
%ADD24R,0.40000X1.35000*%
%ADD25R,1.60000X1.40000*%
%TA.AperFunction,SMDPad,CuDef*%
%ADD26R,1.90000X1.90000*%
%TA.AperFunction,SMDPad,SMDef*%
%ADD27R,0.60000X0.25000*%
%ADD28R,0.25000X0.60000*%
%ADD29R,0.50000X1.67500*%
%ADD30R,1.40000X3.50000*%
%ADD31R,0.50000X3.50000*%
%TA.AperFunction,SMDPad,CuDef*%
%ADD32R,3.10000X4.20000*%
%ADD33R,1.50000X4.70000*%
%ADD34R,1.15000X0.70000*%
%ADD35R,3.00000X3.00000*%
%ADD36R,1.00000X0.75000*%
%ADD37R,0.60000X1.25000*%
%TA.AperFunction,Conductor*%
%ADD38C,0.30000*%
%ADD39C,0.50000*%
%ADD40C,0.20000*%
%ADD41C,0.15000*%
%TA.AperFunction,ComponentPad*%
%ADD42R,1.35800X1.35800*%
%ADD43C,1.35800*%
%ADD44C,1.55000*%
%ADD45R,1.66500X1.66500*%
%ADD46C,1.66500*%
%ADD47R,1.35800X1.35800*%
%ADD48O,0.90000X1.80000*%
%TA.AperFunction,WasherPad*%
%ADD49C,3.00000*%
%TA.AperFunction,ViaPad*%
%ADD50C,0.60000*%
%ADD51C,0.80000*%
%ADD52C,0.50000*%
%ADD53C,1.00000*%
G36*
X7099400Y3396567D02*
X7325067Y3396874D01*
X7334048Y3387893D01*
X7333741Y3162226D01*
X6889400D01*
Y3692226D01*
X7099400D01*
Y3396567D01*
D02*
G37*
G36*
X6850973Y3838239D02*
X6850000Y3150000D01*
X6950000Y3040000D01*
Y2727867D01*
X6588954D01*
X6520000Y2960000D01*
X6289729Y3256984D01*
Y3847226D01*
X6841999D01*
X6850973Y3838239D01*
D02*
G37*
G36*
X8080000Y3350000D02*
X7670000D01*
Y3590000D01*
X8080000D01*
Y3350000D01*
D02*
G37*
G36*
Y4020000D02*
X7670000D01*
Y4250000D01*
X8080000D01*
Y4020000D01*
D02*
G37*
G36*
X5130000Y5950000D02*
X4960000D01*
Y6400000D01*
X5130000D01*
Y5950000D01*
D02*
G37*
G36*
X8080000Y5750000D02*
X7669552D01*
Y5951161D01*
X7669666Y5951437D01*
Y5973477D01*
X7669552Y5973753D01*
Y5990000D01*
X8080000D01*
Y5750000D01*
D02*
G37*
G36*
Y6403831D02*
X7670000D01*
Y6650000D01*
X8080000D01*
Y6403831D01*
D02*
G37*
G36*
Y4550000D02*
X7670000D01*
Y4780000D01*
X8080000D01*
Y4550000D01*
D02*
G37*
G36*
Y5200000D02*
X7670000D01*
Y5450000D01*
X8080000D01*
Y5200000D01*
D02*
G37*
D10*
X3628589Y6074834D02*
G03*
X3621132Y6075953I-7457J-24281D01*
G01*
X3487746Y6082742D02*
G03*
X3490129Y6080670I17827J18093D01*
G01*
X3501589Y6074833D02*
G03*
X3498384Y6075596I-7468J-24277D01*
G01*
X3780684Y6074833D02*
X4040000Y5815517D01*
Y5320000D02*
Y5815517D01*
X3628589Y6074833D02*
X3780684D01*
X3603798Y6075953D02*
X3621132D01*
X3487614Y6082874D02*
X3487746Y6082742D01*
X3496287Y6075953D02*
X3498384Y6075596D01*
X3602679Y6074833D02*
X3603798Y6075953D01*
X3490128Y6080669D02*
X3496287Y6075953D01*
X3501589Y6074833D02*
X3602679Y6074833D01*
X3450255Y6120232D02*
X3487614Y6082874D01*
X4046821Y4873760D02*
X4560001Y4360581D01*
X4039382Y4881200D02*
X4046821Y4873760D01*
X4039381Y5318183D02*
X4040000Y5320000D01*
X4039381Y5318183D02*
X4039382Y4881200D01*
X3425134Y6144534D02*
Y6247033D01*
X3449432Y6120232D02*
X3450255D01*
X3425134Y6247033D02*
X3449432Y6222736D01*
X3425134Y6144534D02*
X3449432Y6120232D01*
X4560001Y3725842D02*
Y3901029D01*
X7396938Y6335105D02*
X7403559Y6328485D01*
X7403759Y6274994D02*
X7414666D01*
X7403559Y6275194D02*
Y6328485D01*
Y6275194D02*
X7403759Y6274994D01*
X7399381Y6083963D02*
Y6124797D01*
X7392760Y6077343D02*
X7399381Y6083963D01*
X7537076Y6261120D02*
X7566965Y6291009D01*
X7537076Y6251757D02*
Y6261120D01*
X7566965Y6291009D02*
Y6322695D01*
X7567293Y5079296D02*
Y5110950D01*
X7539401Y5042042D02*
Y5051404D01*
X7567293Y5079296D01*
X7404790Y3689399D02*
Y3728119D01*
X7398170Y3682778D02*
X7404790Y3689399D01*
X7404990Y3728319D02*
X7414666D01*
X7404790Y3728119D02*
X7404990Y3728319D01*
X4560001Y3901029D02*
Y4360581D01*
X7503312Y3822090D02*
X7566965Y3885743D01*
Y3926017D01*
D11*
X5102502Y4939999D02*
D03*
X4897499D02*
D03*
X6607498Y7179999D02*
D03*
X6812502D02*
D03*
X5477498Y7179999D02*
D03*
X5682502D02*
D03*
X4302503Y3730000D02*
D03*
X4097499D02*
D03*
D12*
X5190001Y4547499D02*
D03*
Y4752502D02*
D03*
X5590000Y4102497D02*
D03*
Y3897499D02*
D03*
X6080001Y3887502D02*
D03*
Y4092500D02*
D03*
X5710003Y5607499D02*
D03*
Y5812502D02*
D03*
X6270000Y5794998D02*
D03*
Y5590000D02*
D03*
X4520000Y3537498D02*
D03*
Y3742502D02*
D03*
D13*
X7290000Y2889999D02*
D03*
X6790000D02*
D03*
D14*
X6247683Y5448372D02*
D03*
Y5321372D02*
D03*
Y5194372D02*
D03*
Y5067372D02*
D03*
Y4940372D02*
D03*
Y4813372D02*
D03*
Y4686372D02*
D03*
Y4559372D02*
D03*
X5702731D02*
D03*
Y4686372D02*
D03*
Y4813372D02*
D03*
Y4940372D02*
D03*
Y5067372D02*
D03*
Y5194372D02*
D03*
Y5321372D02*
D03*
Y5448372D02*
D03*
X5869085Y7199000D02*
D03*
Y7072000D02*
D03*
Y6945000D02*
D03*
Y6818000D02*
D03*
Y6691000D02*
D03*
Y6564000D02*
D03*
Y6437000D02*
D03*
Y6310000D02*
D03*
X6414037D02*
D03*
Y6437000D02*
D03*
Y6564000D02*
D03*
Y6691000D02*
D03*
Y6818000D02*
D03*
Y6945000D02*
D03*
Y7072000D02*
D03*
Y7199000D02*
D03*
D15*
X5529058Y3750501D02*
D03*
Y3623501D02*
D03*
Y3496501D02*
D03*
Y3369501D02*
D03*
X6071458D02*
D03*
Y3496501D02*
D03*
Y3623501D02*
D03*
Y3750501D02*
D03*
D16*
X4914930Y3590000D02*
D03*
X4764933D02*
D03*
D17*
X5244932D02*
D03*
X5094935D02*
D03*
D18*
X5020000Y6160000D02*
D03*
X4880000D02*
D03*
D19*
X5050000Y6710000D02*
D03*
Y6850000D02*
D03*
D20*
X4177502Y4043528D02*
D03*
Y4123527D02*
D03*
Y4203527D02*
D03*
Y4283527D02*
D03*
Y4363527D02*
D03*
Y4443532D02*
D03*
Y4523532D02*
D03*
Y4603532D02*
D03*
X5022499D02*
D03*
Y4523532D02*
D03*
Y4443532D02*
D03*
Y4363527D02*
D03*
Y4283527D02*
D03*
Y4203527D02*
D03*
Y4123527D02*
D03*
Y4043528D02*
D03*
D21*
X4320002Y4746031D02*
D03*
X4400001D02*
D03*
X4640001D02*
D03*
X4720001D02*
D03*
X4800001D02*
D03*
X4880000D02*
D03*
Y3901029D02*
D03*
X4800001D02*
D03*
X4720001D02*
D03*
X4640001D02*
D03*
X4560001D02*
D03*
X4480001D02*
D03*
X4400001D02*
D03*
X4320002D02*
D03*
X4480001Y4746031D02*
D03*
X4560001D02*
D03*
D22*
X3679134Y6654033D02*
D03*
Y6247033D02*
D03*
X3552134Y6654033D02*
D03*
Y6247033D02*
D03*
X3425134Y6654033D02*
D03*
Y6247033D02*
D03*
X3933134Y6654033D02*
D03*
Y6247033D02*
D03*
X3806134Y6654033D02*
D03*
Y6247033D02*
D03*
D23*
X4399625Y6710497D02*
D03*
Y6615501D02*
D03*
Y6520500D02*
D03*
X4644624D02*
D03*
Y6710497D02*
D03*
D24*
X4619625Y6948957D02*
D03*
X4554626D02*
D03*
X4489623D02*
D03*
X4424624D02*
D03*
X4359626D02*
D03*
D25*
X4809622Y6971462D02*
D03*
X4169623D02*
D03*
D26*
X4609622Y7216460D02*
D03*
X4369623D02*
D03*
D27*
X7414666Y6124997D02*
D03*
Y6174994D02*
D03*
Y6224996D02*
D03*
Y6274994D02*
D03*
X7414997Y4913254D02*
D03*
Y4963251D02*
D03*
Y5013254D02*
D03*
Y5063251D02*
D03*
X7414666Y3728319D02*
D03*
Y3778321D02*
D03*
Y3828318D02*
D03*
Y3878321D02*
D03*
D28*
X7467168Y6339997D02*
D03*
X7517166D02*
D03*
X7567168D02*
D03*
Y6059998D02*
D03*
X7517166D02*
D03*
X7467168D02*
D03*
X7467493Y5128250D02*
D03*
X7517496D02*
D03*
X7567493D02*
D03*
Y4848250D02*
D03*
X7517496D02*
D03*
X7467493D02*
D03*
X7467163Y3943320D02*
D03*
X7517166D02*
D03*
X7567163D02*
D03*
Y3663320D02*
D03*
X7517166D02*
D03*
X7467163D02*
D03*
D29*
X7694666Y6291245D02*
D03*
Y6108746D02*
D03*
X7694996Y5079502D02*
D03*
Y4897003D02*
D03*
X7694666Y3894567D02*
D03*
Y3712068D02*
D03*
D30*
X7809667Y6199998D02*
D03*
X7809992Y4988250D02*
D03*
X7809667Y3803320D02*
D03*
D31*
X7624669Y6199998D02*
D03*
X7624994Y4988250D02*
D03*
X7624663Y3803320D02*
D03*
D32*
X6641902Y3570000D02*
D03*
D33*
X6411900D02*
D03*
D34*
X6959402Y3760500D02*
D03*
Y3633500D02*
D03*
Y3506500D02*
D03*
Y3379500D02*
D03*
D35*
X8065582Y3499998D02*
D03*
Y4100002D02*
D03*
Y4700001D02*
D03*
Y5300000D02*
D03*
Y5899998D02*
D03*
Y6500002D02*
D03*
D36*
X7247421Y3560055D02*
D03*
Y3710053D02*
D03*
X7252467Y4771844D02*
D03*
Y4921846D02*
D03*
X7254239Y5999997D02*
D03*
Y5850000D02*
D03*
D37*
X5044998Y6585002D02*
D03*
X4950002D02*
D03*
X4855001D02*
D03*
Y6335000D02*
D03*
X5044998D02*
D03*
D38*
X3800003Y3366000D02*
X3931595Y3497593D01*
Y4052905D01*
X3563000Y3493000D02*
Y3538628D01*
X3577919Y3553546D01*
Y3560748D01*
X3546003Y3493000D02*
X3563000D01*
X3577919Y3560748D02*
X3684103Y3666932D01*
Y3668008D02*
X3751995Y3735900D01*
X3684103Y3666932D02*
Y3668008D01*
X3753071Y3735900D02*
X3857706Y3840535D01*
X3751995Y3735900D02*
X3753071D01*
X3857706Y3840535D02*
Y4093911D01*
X3803527Y4363527D02*
X4177502D01*
X3550296Y4488705D02*
X4078941D01*
X4119331Y4448315D02*
X4172719D01*
X3546003Y4492998D02*
X3550296Y4488705D01*
X4078941D02*
X4119331Y4448315D01*
X4172719D02*
X4177502Y4443532D01*
X3800000Y5284940D02*
X3861431Y5223509D01*
Y4771934D02*
X4105049Y4528315D01*
X3861431Y4771934D02*
Y5223509D01*
X4105049Y4528315D02*
X4175945D01*
X4180728Y4523532D01*
X3800000Y5284940D02*
Y5296911D01*
X3834168Y5495744D02*
X3960529Y5369382D01*
X3546003Y5493001D02*
X3548745Y5495744D01*
X3834168D01*
X3960529Y4771249D02*
Y5369382D01*
Y4771249D02*
X4128247Y4603532D01*
X3828134Y6119257D02*
Y6225033D01*
X4150000Y4913331D02*
Y5797391D01*
X3828134Y6119257D02*
X4150000Y5797391D01*
X3806134Y6247033D02*
X3828134Y6225033D01*
X4150000Y4913331D02*
X4274886Y4788445D01*
X4250000Y4970514D02*
X4395218Y4825296D01*
X4250000Y4970514D02*
Y5834547D01*
X3962014Y6122533D02*
X4250000Y5834547D01*
X3955131Y6122533D02*
X3962014D01*
X3933134Y6144534D02*
Y6247033D01*
Y6144534D02*
X3955131Y6122533D01*
X4399619Y3901411D02*
X4400001Y3901029D01*
X4399619Y3901411D02*
Y4003591D01*
X4399237Y4003973D02*
X4399619Y4003591D01*
X6528300Y5746348D02*
X7132816Y5141833D01*
X7467493Y5128250D02*
Y5139333D01*
X7132816Y5141833D02*
X7464993D01*
X7467493Y5139333D01*
X7342835Y5061182D02*
X7399997D01*
X7340766Y5059113D02*
X7342835Y5061182D01*
X6448564Y5104335D02*
Y5133571D01*
Y5104335D02*
X7467163Y4085736D01*
X6373706Y5179193D02*
X6402942D01*
X6448564Y5133571D01*
X6370198Y5182702D02*
X6373706Y5179193D01*
X6259353Y5182702D02*
X6370198D01*
X7467163Y3943320D02*
Y4085736D01*
X4395218Y4750814D02*
Y4825296D01*
Y4750814D02*
X4400001Y4746031D01*
X4274886Y4788445D02*
X4308453D01*
X4317300Y4746031D02*
Y4779598D01*
X4308453Y4788445D02*
X4317300Y4779598D01*
X6229288Y2954712D02*
Y3500082D01*
Y2954712D02*
X6374000Y2810000D01*
X5646385Y2800000D02*
X5959106Y3112721D01*
Y3427899D02*
X6027708Y3496501D01*
X5959106Y3112721D02*
Y3427899D01*
X5524000Y2800000D02*
X5646385D01*
X6027708Y3496501D02*
X6071458D01*
X5741453Y3080000D02*
X5901711Y3240257D01*
Y4134255D02*
X6122105Y4354649D01*
X5901711Y3240257D02*
Y4134255D01*
X6115494Y3613875D02*
X6229288Y3500082D01*
X4699007Y2980672D02*
X4798335Y3080000D01*
X4503665D02*
X4602993Y2980672D01*
X4699007D01*
X4390000Y3080000D02*
X4503665D01*
X4798335D02*
X5741453D01*
X6167155Y4928702D02*
X6236013D01*
X6122105Y4883651D02*
X6167155Y4928702D01*
X6236013D02*
X6247683Y4940372D01*
X6122105Y4354649D02*
Y4883651D01*
X7616425Y4996818D02*
X7624994Y4988250D01*
X7616425Y4996818D02*
Y5198630D01*
X7619795Y4983051D02*
X7624994Y4988250D01*
X7619663Y4983344D02*
X7619875Y4983132D01*
X7619795Y4766830D02*
Y4983051D01*
X7614266Y5962457D02*
X7619467Y5967658D01*
Y6192755D01*
X7616289Y6208377D02*
Y6410252D01*
X7618447Y6193776D02*
X7619467Y6192755D01*
X7618447Y6198345D02*
X7623015D01*
X7616289Y6208377D02*
X7624669Y6199998D01*
X7623015Y6198345D02*
X7624669Y6199998D01*
X7610549Y6415992D02*
X7616289Y6410252D01*
X7614596Y4761631D02*
X7619795Y4766830D01*
X7610685Y5204371D02*
X7616425Y5198630D01*
X7614266Y3546387D02*
X7619465Y3551585D01*
Y3798121D01*
X7624663Y3803320D01*
X7617478Y3810505D02*
X7624663Y3803320D01*
X7617478Y3810505D02*
Y4012750D01*
X7611738Y4018490D02*
X7617478Y4012750D01*
X7467168Y6339997D02*
Y6639556D01*
X6616222Y6870934D02*
X7235790D01*
X7467168Y6639556D01*
X6501619Y6756331D02*
X6616222Y6870934D01*
X6596318Y6958989D02*
X7287046D01*
X7517166Y6339997D02*
Y6728869D01*
X7287046Y6958989D02*
X7517166Y6728869D01*
X6472122Y6834793D02*
X6596318Y6958989D01*
X6355005Y5236301D02*
X6445090D01*
X6335265Y5256042D02*
X6355005Y5236301D01*
X6139598Y5235539D02*
X6160100Y5256042D01*
X6445090Y5236301D02*
X7517166Y4164226D01*
X6139598Y5098782D02*
Y5235539D01*
X6160100Y5256042D02*
X6335265D01*
X7517166Y3943320D02*
Y4164226D01*
X6247683Y5194372D02*
X6259353Y5182702D01*
X6203716Y5194372D02*
X6247683D01*
X6139598Y5098782D02*
X6159338Y5079042D01*
X6236013D01*
X6247683Y5067372D01*
X7206581Y5219077D02*
X7468662D01*
X6656640Y5769019D02*
Y6462351D01*
Y5769019D02*
X7206581Y5219077D01*
X6528300Y5746348D02*
Y6471989D01*
X6499789Y6500500D02*
X6528300Y6471989D01*
X7468662Y5219077D02*
X7514992Y5172747D01*
Y5155576D02*
Y5172747D01*
Y5155576D02*
X7514996Y5155572D01*
Y5130750D02*
Y5155572D01*
Y5130750D02*
X7517496Y5128250D01*
X7255655Y6006571D02*
X7428598D01*
X7440171Y5994998D01*
X7494166D02*
X7514666Y6015499D01*
X7440171Y5994998D02*
X7494166D01*
X4914930Y3590000D02*
X5094935D01*
X4755957Y3568976D02*
Y3655000D01*
Y3568976D02*
X4764933Y3560000D01*
X4640001Y3770956D02*
Y3901029D01*
Y3770956D02*
X4755957Y3655000D01*
X7402785Y4910754D02*
X7405284Y4913254D01*
X7402785Y4872863D02*
Y4910754D01*
X7397044Y4867123D02*
X7402785Y4872863D01*
X7405284Y4913254D02*
X7414997D01*
X7407085Y3878321D02*
X7414666D01*
X7404585Y3880821D02*
Y3914150D01*
Y3880821D02*
X7407085Y3878321D01*
X7398845Y3919891D02*
X7404585Y3914150D01*
X6373416Y6817894D02*
X6460346D01*
X6472122Y6829670D01*
Y6834793D01*
X6305953Y6776833D02*
Y6893900D01*
X6345384Y6933330D02*
X6401026D01*
X6305953Y6893900D02*
X6345384Y6933330D01*
X6401026D02*
X6412696Y6945000D01*
X6326455Y6756331D02*
X6501619D01*
X6305953Y6776833D02*
X6326455Y6756331D01*
X6349763Y6679330D02*
X6402367D01*
X6305952Y6635520D02*
X6349763Y6679330D01*
X6402367D02*
X6414037Y6691000D01*
X6305952Y6522833D02*
Y6635520D01*
X6328285Y6500500D02*
X6499789D01*
X6305952Y6522833D02*
X6328285Y6500500D01*
X6566660Y6552330D02*
X6656640Y6462351D01*
X6425707Y6552330D02*
X6566660D01*
X6414037Y6564000D02*
X6425707Y6552330D01*
X4641941Y3899088D02*
X4644781Y3896248D01*
X7483083Y4771844D02*
X7517496Y4806254D01*
X7249139Y4771844D02*
X7483083D01*
X7514666Y6015499D02*
Y6044998D01*
X6192046Y5182702D02*
X6203716Y5194372D01*
X7247421Y3560055D02*
X7455897D01*
X7517166Y3621324D01*
X4082628Y4203939D02*
X4177909D01*
X4047327Y4283527D02*
X4182842D01*
X3931595Y4052905D02*
X4082628Y4203939D01*
X3857706Y4093911D02*
X4047327Y4283527D01*
X3566246Y3443244D02*
Y3480151D01*
X4128247Y4603532D02*
X4177502D01*
X7517496Y4806254D02*
Y4848250D01*
X7517166Y3621324D02*
Y3663320D01*
D39*
X4813050Y6158656D02*
X4813721Y6159328D01*
X4879328D02*
X4880000Y6160000D01*
X4813721Y6159328D02*
X4879328D01*
X5106685Y4955331D02*
X5125312Y4936704D01*
X5179592D01*
X5106685Y4955331D02*
Y4970307D01*
X5179592Y4936704D02*
X5181506Y4934791D01*
X4904438Y4951845D02*
Y4963059D01*
X4920309Y4935974D02*
X4973754D01*
X4904438Y4951845D02*
X4920309Y4935974D01*
X4973754D02*
X4975667Y4934061D01*
X5098715Y4978277D02*
X5106685Y4970307D01*
X5189991Y4769693D02*
X5190928Y4768756D01*
X5189982Y4832657D02*
X5189991Y4832647D01*
Y4769693D02*
Y4832647D01*
X5190001Y4547499D02*
Y4622804D01*
X5177501Y4547499D02*
X5190001D01*
X5154491Y4524488D02*
X5177501Y4547499D01*
X5023456Y4524488D02*
X5154491D01*
X6414037Y7199000D02*
X6611729D01*
X6269791Y5589791D02*
X6270000Y5590000D01*
X6269442Y5589442D02*
X6269791Y5589791D01*
Y5590209D01*
Y5450322D02*
Y5589791D01*
X6071458Y3750501D02*
Y3887502D01*
X4770321Y6336069D02*
Y6710497D01*
X4860000D01*
X4644624D02*
X4770321D01*
X4646000Y6211749D02*
X4770321Y6336069D01*
X4646000Y5837000D02*
Y6211749D01*
X4897499Y4969998D02*
X4904438Y4963059D01*
X4881131Y4795697D02*
Y4953631D01*
X4897499Y4969998D01*
X4880957Y4746987D02*
Y4795523D01*
X4881131Y4795697D01*
X4880000Y4746031D02*
X4880957Y4746987D01*
X5047499Y6587503D02*
Y6707499D01*
X5044998Y6585002D02*
X5047499Y6587503D01*
Y6707499D02*
X5050000Y6710000D01*
X4860000Y6710497D02*
X5040000D01*
X4855001Y6585002D02*
X4860000Y6590001D01*
Y6710497D01*
X5040000Y6180000D02*
Y6340000D01*
X4949537Y6492176D02*
Y6617306D01*
X5557875Y4082872D02*
X5590286D01*
X4918344Y4444116D02*
X5064582D01*
X4595500Y7215927D02*
X4805502D01*
X4145504D02*
X4355501D01*
X4798243Y6973667D02*
X4814428Y6989851D01*
X4397563Y6610497D02*
Y6615816D01*
X4155501Y6970923D02*
X4176207Y6991629D01*
X4949537Y6617306D02*
X4950000Y6617769D01*
X4949072Y6491711D02*
X4949537Y6492176D01*
X5053780Y6846220D02*
X5116722D01*
X5423718Y3368865D02*
X5518368D01*
X5244932Y3590000D02*
X5245192Y3590260D01*
Y3670143D01*
X5245452Y3670403D01*
X6122708Y3306592D02*
X6125665Y3303635D01*
X6115208Y3369501D02*
X6122708Y3362001D01*
Y3306592D02*
Y3362001D01*
X6071458Y3369501D02*
X6115208D01*
X6125665Y3300929D02*
Y3303635D01*
X4302503Y3720000D02*
X4320002Y3737498D01*
Y3901029D01*
X4096178Y3762137D02*
X4103462Y3754854D01*
X4096178Y3762137D02*
Y3822092D01*
X4094857Y3823414D02*
X4096178Y3822092D01*
X4537090Y3541475D02*
X4611629D01*
X5512195Y4037192D02*
X5557875Y4082872D01*
X5503677Y4035279D02*
X5505590Y4037192D01*
X5512195D01*
X6178031Y5588885D02*
X6178588Y5589442D01*
X6269442D01*
X5580308Y3879179D02*
X5588980D01*
X5580308Y3758001D02*
Y3879179D01*
X5498727D02*
X5580308D01*
X6094358Y4095891D02*
X6169593D01*
X6103430Y3898431D02*
X6170243D01*
X6092501Y3887502D02*
X6103430Y3898431D01*
X6170243D02*
X6172156Y3900344D01*
X6080001Y3887502D02*
X6092501D01*
X4315469Y3622757D02*
Y3710761D01*
X5022499Y4523532D02*
X5023456Y4524488D01*
X6607498Y7167499D02*
X6630309Y7144689D01*
Y7102398D02*
X6640000Y7092706D01*
Y7090000D02*
Y7092706D01*
X6630309Y7102398D02*
Y7144689D01*
X6607498Y7167499D02*
Y7179999D01*
X6611729Y7182869D02*
Y7199000D01*
X5476845Y7179346D02*
X5477498Y7179999D01*
X5476192Y7088551D02*
X5476845Y7089204D01*
Y7179346D01*
X5660403Y7091877D02*
Y7157900D01*
X5699833Y7197330D01*
X5658490Y7089964D02*
X5660403Y7091877D01*
X5699833Y7197330D02*
X5867415D01*
X6270000Y5794998D02*
X6271708Y5796706D01*
Y5870689D01*
X6273416Y5872398D01*
X6267841Y5448372D02*
X6269791Y5450322D01*
X5621289Y5809172D02*
X5622954Y5810837D01*
X5682829D02*
X5683887Y5809779D01*
X5622954Y5810837D02*
X5682829D01*
X5621091Y5605085D02*
X5703974D01*
X5706388Y5450042D02*
Y5607499D01*
X5703974Y5605085D02*
X5706388Y5607499D01*
X5619177Y5603171D02*
X5621091Y5605085D01*
X7040000Y5513275D02*
Y6075843D01*
Y5513275D02*
X7041273Y5512002D01*
X7040000Y6075843D02*
X7170000Y6205843D01*
Y6740000D01*
X7231628Y5839889D02*
X7264350D01*
X6810722Y7181778D02*
X6812502Y7179999D01*
X6808943Y7270625D02*
X6810722Y7268846D01*
Y7181778D02*
Y7268846D01*
X6249353Y4684702D02*
X6335626D01*
X6354508Y4665819D02*
X6357214D01*
X6247683Y4686372D02*
X6249353Y4684702D01*
X6335626D02*
X6354508Y4665819D01*
X6300423Y6435966D02*
X6413002D01*
X6414037Y6437000D01*
X6299388Y6434931D02*
X6300423Y6435966D01*
X6247683Y5448372D02*
X6267841D01*
X6312441Y6311670D02*
X6412367D01*
X6307574Y6316537D02*
X6312441Y6311670D01*
X6304868Y6316537D02*
X6307574D01*
X6412367Y6311670D02*
X6414037Y6310000D01*
X6248868Y5320186D02*
X6365579D01*
X6366765Y5319001D01*
X6247683Y5321372D02*
X6248868Y5320186D01*
X7224907Y5787714D02*
X7229239Y5792046D01*
X7224907Y5785008D02*
Y5787714D01*
X7229239Y5792046D02*
Y5837500D01*
X7231628Y5839889D01*
X5704718Y5448372D02*
X5706388Y5450042D01*
X5702731Y5448372D02*
X5704718D01*
X7237898Y3710053D02*
X7247421D01*
X7225398Y3722553D02*
X7237898Y3710053D01*
X7223485Y3784304D02*
X7225398Y3782391D01*
Y3722553D02*
Y3782391D01*
X5672467Y4557702D02*
X5674137Y4559372D01*
X5702731D01*
X5672467Y4500286D02*
Y4557702D01*
X5670554Y4498373D02*
X5672467Y4500286D01*
X5497421Y3880485D02*
X5498727Y3879179D01*
X5868056Y7070971D02*
X5869085Y7072000D01*
X5767937Y7070971D02*
X5868056D01*
X5766908Y7069943D02*
X5767937Y7070971D01*
X5867849Y6308764D02*
X5869085Y6310000D01*
X5767377Y6308764D02*
X5867849D01*
X5766140Y6307528D02*
X5767377Y6308764D01*
X5702621Y5321482D02*
X5702731Y5321372D01*
X5599538Y5321592D02*
X5599648Y5321482D01*
X5702621D01*
X6199598Y4557702D02*
X6201268Y4559372D01*
X6199598Y4504098D02*
Y4557702D01*
X6196780Y4501281D02*
X6199598Y4504098D01*
X6201268Y4559372D02*
X6247683D01*
X6196780Y4498575D02*
Y4501281D01*
X6415958Y7070079D02*
X6515916D01*
X6414037Y7072000D02*
X6415958Y7070079D01*
X7173941Y4923638D02*
X7250675D01*
X7172148Y4925431D02*
X7173941Y4923638D01*
X7250675D02*
X7252467Y4921846D01*
X5867415Y7197330D02*
X5869085Y7199000D01*
X4175848Y4041221D02*
X4176705D01*
X4175845Y3984716D02*
Y4041218D01*
X4175848Y4041221D01*
X4174186Y3983058D02*
X4175845Y3984716D01*
X7879822Y3499998D02*
X8165582D01*
X7708605Y5300000D02*
X8165582D01*
X7719761Y6500002D02*
X8165582D01*
X4655063Y6707561D02*
Y6876019D01*
X3934932Y6642923D02*
X3945133Y6653124D01*
X3934932Y6483731D02*
X3936731Y6481933D01*
X3934932Y6483731D02*
Y6642923D01*
X3551489Y6484087D02*
Y6630589D01*
X3550849Y6483447D02*
X3551489Y6484087D01*
X3807120Y6484427D02*
Y6632103D01*
X3806363Y6632859D02*
X3807120Y6632103D01*
Y6484427D02*
X3808105Y6483447D01*
X3423732Y6483441D02*
X3424433Y6484142D01*
Y6639667D01*
X4917755Y4444705D02*
X4918344Y4444116D01*
X5064582D02*
X5065121Y4443578D01*
X5022850Y4603882D02*
Y4661220D01*
X5023206Y4661571D01*
X5022499Y4603532D02*
X5022850Y4603882D01*
X4352656Y7045640D02*
X4354622Y7043669D01*
X4352656Y7045640D02*
Y7048348D01*
X4354622Y6991462D02*
Y7043669D01*
X4619625Y6911457D02*
Y6948957D01*
Y6911457D02*
X4655063Y6876019D01*
X4814428Y6989851D02*
Y7068876D01*
X4176207Y6991629D02*
Y7068876D01*
X4340946Y6616131D02*
X4341261Y6615816D01*
X4397563D01*
X6959402Y3760500D02*
Y3827226D01*
X8065582Y4100002D02*
X8165582D01*
X7723952D02*
X8065582D01*
Y4700001D02*
X8165582D01*
X7724282D02*
X8065582D01*
X7694666Y5946054D02*
X7836891Y5803829D01*
X7694666Y5946054D02*
Y6108746D01*
X7694996Y5079502D02*
Y5251968D01*
X7743027Y5300000D01*
X7694666Y6291245D02*
Y6440485D01*
X7754183Y6500002D01*
X7726045Y3472561D02*
X7886802D01*
X7694666Y3503940D02*
X7726045Y3472561D01*
X7886802D02*
X7914244Y3499998D01*
X7694666Y3894567D02*
Y4070711D01*
Y3503940D02*
Y3712068D01*
X7694996Y4729292D02*
Y4897003D01*
D40*
X5022499Y4363527D02*
X5180087D01*
X5300495Y4483935D02*
Y5253761D01*
X5180087Y4363527D02*
X5300495Y4483935D01*
X5028214Y4289242D02*
X5224922D01*
X5363944Y4428264D02*
Y4906505D01*
X5224922Y4289242D02*
X5363944Y4428264D01*
X5448598Y5562726D02*
Y6316928D01*
X5005872Y5120000D02*
X5448598Y5562726D01*
Y6316928D02*
X5822670Y6691000D01*
X5353137Y6348467D02*
X5822670Y6818000D01*
X5353137Y5622900D02*
Y6348467D01*
X4966765Y5236528D02*
X5353137Y5622900D01*
X5250218Y6372548D02*
X5822670Y6945000D01*
X5250218Y5645014D02*
Y6372548D01*
X4947229Y5342025D02*
X5250218Y5645014D01*
X5300495Y5253761D02*
X5549815Y5503081D01*
Y6286535D01*
X4859912Y5236528D02*
X4966765D01*
X4718711Y5095327D02*
X4859912Y5236528D01*
X4640001Y5184578D02*
X4797448Y5342025D01*
X4947229D01*
X4640001Y4746031D02*
Y5184578D01*
X4870000Y5120000D02*
X5005872D01*
X4800001Y4746031D02*
Y5050001D01*
X4870000Y5120000D01*
X4718711Y4747320D02*
Y5095327D01*
X5549815Y6286535D02*
X5806000Y6542720D01*
X4147806Y3440000D02*
X5259505D01*
X5433380Y3613875D01*
X4010637Y3577170D02*
X4147806Y3440000D01*
X5527002Y3494445D02*
X5529058Y3496501D01*
X5422430Y3494445D02*
X5527002D01*
X5433380Y3613875D02*
X5529344D01*
X5123800Y4203425D02*
X5123902Y4203322D01*
X5022499Y4203527D02*
X5022602Y4203425D01*
X5123800D01*
X4833911Y3701686D02*
X5032778D01*
X5597721Y4266629D02*
Y4754693D01*
X5032778Y3701686D02*
X5597721Y4266629D01*
X4720001Y3901029D02*
X4720443Y3900586D01*
Y3815154D02*
X4833911Y3701686D01*
X4720443Y3815154D02*
Y3900586D01*
X7335924Y5685924D02*
Y5776605D01*
X7100000Y5450000D02*
X7335924Y5685924D01*
Y5776605D02*
X7564668Y6005348D01*
Y6057498D01*
X6885530Y4904659D02*
X7122697Y4667492D01*
X6885530Y4904659D02*
Y4906474D01*
X7122697Y4667492D02*
X7428231D01*
X6741603Y4702624D02*
X6842264Y4601963D01*
Y4595729D02*
Y4601963D01*
Y4595729D02*
X7136259Y4301735D01*
Y3541292D02*
Y4301735D01*
X6421002Y4702624D02*
X6741603D01*
X6326924Y4796702D02*
X6421002Y4702624D01*
X6247683Y4813372D02*
X6264353Y4796702D01*
X6326924D01*
X7564993Y4804254D02*
Y4845750D01*
X7428231Y4667492D02*
X7564993Y4804254D01*
X7564668Y6057498D02*
X7567168Y6059998D01*
X4800001Y3854711D02*
X4856183Y3798529D01*
X5007572D02*
X5523318Y4314275D01*
X4800001Y3854711D02*
Y3901029D01*
X4856183Y3798529D02*
X5007572D01*
X5523318Y4314275D02*
Y4780643D01*
X7564993Y4845750D02*
X7567493Y4848250D01*
X7566000Y3590518D02*
Y3662157D01*
X7468038Y3492556D02*
X7566000Y3590518D01*
X7184995Y3492556D02*
X7468038D01*
X7136259Y3541292D02*
X7184995Y3492556D01*
X5686061Y5177702D02*
X5702731Y5194372D01*
X5635140Y5177702D02*
X5686061D01*
X5363944Y4906505D02*
X5635140Y5177702D01*
X4010637Y3577170D02*
Y4005363D01*
X4128801Y4123527D01*
X4177502D01*
X5639646Y4796617D02*
Y4796702D01*
X5597721Y4754693D02*
X5639646Y4796617D01*
Y4796702D02*
X5656316Y4813372D01*
X5702731D01*
X5523318Y4780643D02*
X5612717Y4870042D01*
X5041317Y3936028D02*
X5440123Y4334834D01*
Y4817297D01*
X5558628Y4935802D01*
X5022499Y4283527D02*
X5028214Y4289242D01*
X5612717Y4870042D02*
X5794100D01*
X5558628Y4935802D02*
X5698161D01*
X5805816Y4881757D02*
Y4979468D01*
X5794100Y4870042D02*
X5805816Y4881757D01*
X5698161Y4935802D02*
X5702731Y4940372D01*
X5716391Y4997042D02*
X5788242D01*
X5805816Y4979468D01*
X5702731Y5010702D02*
Y5067372D01*
Y5010702D02*
X5716391Y4997042D01*
X4896168Y3936028D02*
X5041317D01*
X4880000Y3919861D02*
X4896168Y3936028D01*
X4880000Y3901029D02*
Y3919861D01*
X5806000Y6547330D02*
X5822670Y6564000D01*
X5869085D01*
X5806000Y6542720D02*
Y6547330D01*
X5822670Y6818000D02*
X5869085D01*
X5822670Y6691000D02*
X5869085D01*
X5822670Y6945000D02*
X5869085D01*
D41*
X4415434Y6520500D02*
Y6528806D01*
X4399625Y6520500D02*
X4415434D01*
X4399625D02*
X4407124D01*
X4504624Y6609690D02*
Y6717228D01*
Y6609690D02*
Y6717233D01*
Y6880174D01*
X4628667Y6520500D02*
X4644624D01*
X4628667D02*
Y6528958D01*
X4407124Y6520500D02*
X4429628Y6498001D01*
Y6490498D02*
X4502216Y6417909D01*
X4429628Y6490498D02*
Y6498001D01*
X4502216Y4819818D02*
Y6417909D01*
X4637126Y6520500D02*
X4644624D01*
X4537217Y4819818D02*
Y6413089D01*
X4614626Y6490498D02*
Y6498001D01*
X4637126Y6520500D01*
X4537217Y6413089D02*
X4614626Y6490498D01*
X4606168Y6542999D02*
X4614626D01*
X4539625Y6609542D02*
Y6731726D01*
X4614626Y6542999D02*
X4628667Y6528958D01*
X4539625Y6609542D02*
X4606168Y6542999D01*
X4415434Y6528806D02*
X4429628Y6542999D01*
X4437934D01*
X4504624Y6609690D01*
X4480001Y4746031D02*
Y4797598D01*
X4502216Y4819818D01*
X4560001Y4746031D02*
Y4797034D01*
X4537217Y4819818D02*
X4560001Y4797034D01*
X4542125Y6936461D02*
X4554626Y6948957D01*
X4542125Y6882674D02*
Y6936461D01*
X4539625Y6880174D02*
X4542125Y6882674D01*
X4539625Y6731726D02*
Y6880174D01*
X4502125Y6882674D02*
X4504624Y6880174D01*
X4489623Y6948957D02*
X4502125Y6936461D01*
Y6882674D02*
Y6936461D01*
D42*
X4646000Y5837000D02*
D03*
X3546003Y5747001D02*
D03*
Y3747000D02*
D03*
Y4746998D02*
D03*
D43*
X4900000Y5710000D02*
D03*
X4646000Y5583000D02*
D03*
X4900000Y5456000D02*
D03*
X4651000Y3096572D02*
D03*
X4524000Y2842572D02*
D03*
X4397000Y3096572D02*
D03*
X3800003Y5366001D02*
D03*
X3546003Y5493001D02*
D03*
X3800003Y5620001D02*
D03*
Y3366000D02*
D03*
X3546003Y3493000D02*
D03*
X3800003Y3620000D02*
D03*
Y4365998D02*
D03*
X3546003Y4492998D02*
D03*
X3800003Y4619998D02*
D03*
D44*
X4826000Y5977000D02*
D03*
X4130000Y3022572D02*
D03*
X3726002Y5887001D02*
D03*
Y3887000D02*
D03*
Y4886998D02*
D03*
D45*
X6374000Y2810000D02*
D03*
X5524000Y2800000D02*
D03*
D46*
X6120000Y2810000D02*
D03*
X5866000D02*
D03*
X5270000Y2800000D02*
D03*
X5016000D02*
D03*
D47*
X4270000Y2842572D02*
D03*
D48*
X4819625Y7216460D02*
D03*
X4159626D02*
D03*
D49*
X7999999Y2899999D02*
D03*
Y7100001D02*
D03*
X3599998Y2899999D02*
D03*
Y7100001D02*
D03*
D50*
X4399237Y4003973D02*
D03*
X7240000Y7030000D02*
D03*
X7160000D02*
D03*
Y7110000D02*
D03*
X7240000D02*
D03*
X7340766Y5059113D02*
D03*
X4813050Y6158656D02*
D03*
X5181506Y4934791D02*
D03*
X4975667Y4934061D02*
D03*
X5189982Y4832657D02*
D03*
X4949072Y6491711D02*
D03*
X5116722Y6846220D02*
D03*
X5423718Y3368865D02*
D03*
X5422430Y3494445D02*
D03*
X5123902Y4203322D02*
D03*
X5245452Y3670403D02*
D03*
X6125665Y3300929D02*
D03*
X4094857Y3823414D02*
D03*
X4611629Y3541475D02*
D03*
X6916306Y5132939D02*
D03*
X5503677Y4035279D02*
D03*
X6178031Y5588885D02*
D03*
X6169593Y4095891D02*
D03*
X6172156Y3900344D02*
D03*
X5191132Y4623935D02*
D03*
X4315469Y3622757D02*
D03*
X6640000Y7090000D02*
D03*
X5476192Y7088551D02*
D03*
X5658490Y7089964D02*
D03*
X6273416Y5872398D02*
D03*
X5621289Y5809172D02*
D03*
X5619177Y5603171D02*
D03*
X6959600Y5694919D02*
D03*
X7041273Y5512002D02*
D03*
X7100000Y5450000D02*
D03*
X6808943Y7270625D02*
D03*
X6357214Y4665819D02*
D03*
X7614266Y5962457D02*
D03*
X7610549Y6415992D02*
D03*
X7614596Y4761631D02*
D03*
X7610685Y5204371D02*
D03*
X7614266Y3546387D02*
D03*
X7611738Y4018490D02*
D03*
X6299388Y6434931D02*
D03*
X7170000Y6740000D02*
D03*
X6304868Y6316537D02*
D03*
X6366765Y5319001D02*
D03*
X7396938Y6335105D02*
D03*
X6885530Y4906474D02*
D03*
X6842264Y4601963D02*
D03*
X7224907Y5785008D02*
D03*
X7223485Y3784304D02*
D03*
X5670554Y4498373D02*
D03*
X5497421Y3880485D02*
D03*
X5766908Y7069943D02*
D03*
X5766140Y6307528D02*
D03*
X5599538Y5321592D02*
D03*
X6196780Y4498575D02*
D03*
X6515916Y7070079D02*
D03*
X7392760Y6077343D02*
D03*
X7537076Y6251757D02*
D03*
X7397044Y4867123D02*
D03*
X7539401Y5042042D02*
D03*
X7172148Y4925431D02*
D03*
X7398845Y3919891D02*
D03*
X7398170Y3682778D02*
D03*
X4174186Y3983058D02*
D03*
X5000115Y6071202D02*
D03*
X3936731Y6481933D02*
D03*
X3550849Y6483447D02*
D03*
X3808105D02*
D03*
X3423732Y6483441D02*
D03*
X5090000Y6070001D02*
D03*
X5000003Y5990001D02*
D03*
X5090000D02*
D03*
X4917755Y4444705D02*
D03*
X5023206Y4661571D02*
D03*
X4352656Y7048348D02*
D03*
X4814428Y7068876D02*
D03*
X4176207D02*
D03*
X4340946Y6616131D02*
D03*
X6959402Y3827226D02*
D03*
X7503312Y3822090D02*
D03*
D51*
X7390000Y2990000D02*
D03*
Y2890000D02*
D03*
X7190000D02*
D03*
X7290000Y2790000D02*
D03*
Y2890000D02*
D03*
X7190000Y2790000D02*
D03*
X7390000D02*
D03*
X7190000Y2990000D02*
D03*
X7290000D02*
D03*
X7170000Y3220000D02*
D03*
X7280000D02*
D03*
Y3330000D02*
D03*
X7170000D02*
D03*
X7060000D02*
D03*
X6940000D02*
D03*
Y3220000D02*
D03*
X7060000D02*
D03*
X7829225Y3800104D02*
D03*
X7830002Y3670000D02*
D03*
Y6330000D02*
D03*
Y6070001D02*
D03*
X7829225Y6200104D02*
D03*
X7830002Y5120000D02*
D03*
Y4860000D02*
D03*
X7829225Y4990104D02*
D03*
X7830002Y3930000D02*
D03*
D52*
X6378680Y5032884D02*
D03*
X7619663Y4983344D02*
D03*
X7618447Y6198345D02*
D03*
X7619827Y3803317D02*
D03*
X6375853Y5113793D02*
D03*
X6387170Y4896641D02*
D03*
Y4825097D02*
D03*
X6510000Y5300000D02*
D03*
D53*
X7997642Y6134257D02*
D03*
X7975001Y3250001D02*
D03*
X7824998D02*
D03*
X7998851Y3733780D02*
D03*
X7998831Y6269680D02*
D03*
X7999999Y4449999D02*
D03*
Y5650001D02*
D03*
X8000589Y5064262D02*
D03*
X7997276Y5536133D02*
D03*
X7998277Y3870858D02*
D03*
X7997703Y4329120D02*
D03*
X7875001Y6749999D02*
D03*
X7999999D02*
D03*
X8001528Y4933671D02*
D03*
%TF.MD5,000616f3bb37ab2b0e118eb44f3ebef3*%
M02*
