%TF.GenerationSoftware,Altium Limited,Altium Designer,22.10.1 (41)*%
G04 Layer_Color=65535*
%FSLAX45Y45*%
%MOMM*%
%TF.SameCoordinates,46D62589-93FC-40D0-8CC9-1CC447A4D7C4*%
%TF.FilePolarity,Positive*%
%TF.FileFunction,Legend,Top*%
%TF.Part,Single*%
G01*
G75*
%TA.AperFunction,NonConductor*%
%ADD63C,0.10000*%
%ADD64C,0.20000*%
%ADD65C,0.25400*%
%ADD80C,0.60000*%
%ADD81C,0.25000*%
%ADD82C,0.12700*%
%ADD83C,0.15240*%
%ADD84C,0.15000*%
%ADD85C,0.07620*%
G36*
X6346167Y4705420D02*
X6371567D01*
Y4667320D01*
X6346167D01*
Y4705420D01*
D02*
G37*
G36*
X6512521Y6456050D02*
X6537921D01*
Y6417950D01*
X6512521D01*
Y6456050D01*
D02*
G37*
D63*
X6374000Y2940000D02*
G03*
X6374000Y2950000I0J5000D01*
G01*
D02*
G03*
X6374000Y2940000I0J-5000D01*
G01*
X5524000Y2930000D02*
G03*
X5524000Y2940000I0J5000D01*
G01*
D02*
G03*
X5524000Y2930000I0J-5000D01*
G01*
X7065700Y3380000D02*
G03*
X7065700Y3370000I0J-5000D01*
G01*
D02*
G03*
X7065700Y3380000I0J5000D01*
G01*
D64*
X4455200Y5837000D02*
G03*
X4455200Y5837000I-10000J0D01*
G01*
X4280001Y2641774D02*
G03*
X4280001Y2641774I-10000J0D01*
G01*
X4068133Y6654034D02*
G03*
X4068133Y6654034I-10000J0D01*
G01*
X4699624Y6866459D02*
G03*
X4699624Y6866459I-10000J0D01*
G01*
X3355200Y5747000D02*
G03*
X3355200Y5747000I-10000J0D01*
G01*
Y3747000D02*
G03*
X3355200Y3747000I-10000J0D01*
G01*
Y4747000D02*
G03*
X3355200Y4747000I-10000J0D01*
G01*
X4975309Y5000308D02*
X5024692D01*
X4975309Y4879689D02*
X5024692D01*
X5250311Y4625309D02*
Y4674692D01*
X5129691Y4625309D02*
Y4674692D01*
X5529690Y3975309D02*
Y4024692D01*
X5650310Y3975309D02*
Y4024692D01*
X6140311Y3965312D02*
Y4014690D01*
X6019691Y3965312D02*
Y4014690D01*
X5770312Y5685309D02*
Y5734692D01*
X5649688Y5685309D02*
Y5734692D01*
X6209690Y5667810D02*
Y5717188D01*
X6330310Y5667810D02*
Y5717188D01*
X6685309Y7119689D02*
X6734691D01*
X6685309Y7240309D02*
X6734691D01*
X5640258Y3805001D02*
X5960258D01*
Y3315001D02*
Y3805001D01*
X5640258Y3315001D02*
X5960258D01*
X5640258D02*
Y3805001D01*
X5452758Y3818001D02*
X5605258D01*
X4759935Y3500003D02*
X4919934D01*
X4759935Y3680002D02*
X4919934D01*
X5094935Y3507501D02*
X5327432D01*
Y3672499D01*
X5094935D02*
X5327432D01*
X4870000Y6085000D02*
X5030000D01*
X4870000Y6235000D02*
X5030000D01*
X5555309Y7119689D02*
X5604691D01*
X5555309Y7240308D02*
X5604691D01*
X4975000Y6700000D02*
Y6860000D01*
X5125000Y6700000D02*
Y6860000D01*
X4909998Y4013530D02*
Y4633529D01*
X4289999Y4013530D02*
Y4633529D01*
X4909998D01*
X4289999Y4013530D02*
X4909998D01*
X4005133Y6279032D02*
Y6622034D01*
X3353130Y6279032D02*
Y6622034D01*
X4580310Y3615308D02*
Y3664691D01*
X4459690Y3615308D02*
Y3664691D01*
X4477126Y6760500D02*
X4567128D01*
X4477126Y6470498D02*
X4567128D01*
X4477126D02*
Y6760500D01*
X4567128Y6470498D02*
Y6760500D01*
X6545702Y3814998D02*
X6836903D01*
Y3325002D02*
Y3814998D01*
X6545702Y3325002D02*
X6836903D01*
X7157424Y3555052D02*
Y3715051D01*
X7337423Y3555052D02*
Y3715051D01*
X7162465Y4766845D02*
Y4926845D01*
X7342464Y4766845D02*
Y4926845D01*
X7344242Y5845001D02*
Y6005001D01*
X7164242Y5845001D02*
Y6005001D01*
X5099999Y6432501D02*
Y6487502D01*
X4800000Y6432501D02*
X5099999D01*
X4800000D02*
Y6487502D01*
X5099999D01*
Y6522498D02*
Y6647502D01*
X4175310Y3790309D02*
X4224692D01*
X4175310Y3669690D02*
X4224692D01*
D65*
X4005400Y5674600D02*
X4157751D01*
X4106967Y5623816D01*
X4157751Y5573033D01*
X4005400D01*
Y5522249D02*
Y5471466D01*
Y5496857D01*
X4157751D01*
X4132359Y5522249D01*
X4282249Y5485400D02*
Y5536183D01*
Y5510792D01*
X4434600D01*
Y5485400D01*
Y5536183D01*
Y5612359D02*
X4282249D01*
Y5688534D01*
X4307641Y5713926D01*
X4358425D01*
X4383816Y5688534D01*
Y5612359D01*
Y5663142D02*
X4434600Y5713926D01*
X5046967Y3132359D02*
X5021575Y3157751D01*
X4970792D01*
X4945400Y3132359D01*
Y3106967D01*
X4970792Y3081575D01*
X5021575D01*
X5046967Y3056183D01*
Y3030792D01*
X5021575Y3005400D01*
X4970792D01*
X4945400Y3030792D01*
X5199318Y3157751D02*
X5097751D01*
Y3005400D01*
X5199318D01*
X5097751Y3081575D02*
X5148534D01*
X5250102Y3005400D02*
Y3157751D01*
X5326277D01*
X5351669Y3132359D01*
Y3081575D01*
X5326277Y3056183D01*
X5250102D01*
X5300885D02*
X5351669Y3005400D01*
X5402452Y3157751D02*
Y3056183D01*
X5453236Y3005400D01*
X5504019Y3056183D01*
Y3157751D01*
X5656370Y3005400D02*
X5554803D01*
X5656370Y3106967D01*
Y3132359D01*
X5630978Y3157751D01*
X5580195D01*
X5554803Y3132359D01*
X5946967D02*
X5921575Y3157751D01*
X5870792D01*
X5845400Y3132359D01*
Y3106967D01*
X5870792Y3081575D01*
X5921575D01*
X5946967Y3056183D01*
Y3030792D01*
X5921575Y3005400D01*
X5870792D01*
X5845400Y3030792D01*
X6099318Y3157751D02*
X5997751D01*
Y3005400D01*
X6099318D01*
X5997751Y3081575D02*
X6048534D01*
X6150101Y3005400D02*
Y3157751D01*
X6226277D01*
X6251669Y3132359D01*
Y3081575D01*
X6226277Y3056183D01*
X6150101D01*
X6200885D02*
X6251669Y3005400D01*
X6302452Y3157751D02*
Y3056183D01*
X6353236Y3005400D01*
X6404019Y3056183D01*
Y3157751D01*
X3822249Y2675400D02*
Y2776967D01*
Y2726183D01*
X3974600D01*
X3822249Y2827751D02*
X3974600D01*
X3898424D01*
Y2929318D01*
X3822249D01*
X3974600D01*
Y2980101D02*
X3822249D01*
Y3056277D01*
X3847641Y3081668D01*
X3898424D01*
X3923816Y3056277D01*
Y2980101D01*
Y3030885D02*
X3974600Y3081668D01*
X3365400Y4985400D02*
Y5137751D01*
X3416183Y5086967D01*
X3466967Y5137751D01*
Y4985400D01*
X3619318D02*
X3517751D01*
X3619318Y5086967D01*
Y5112359D01*
X3593926Y5137751D01*
X3543143D01*
X3517751Y5112359D01*
X3365400Y3975400D02*
Y4127751D01*
X3416183Y4076967D01*
X3466967Y4127751D01*
Y3975400D01*
X3517751Y4102359D02*
X3543143Y4127751D01*
X3593926D01*
X3619318Y4102359D01*
Y4076967D01*
X3593926Y4051575D01*
X3568534D01*
X3593926D01*
X3619318Y4026183D01*
Y4000792D01*
X3593926Y3975400D01*
X3543143D01*
X3517751Y4000792D01*
X7235400Y3145400D02*
X7336967D01*
X6735400Y3156183D02*
X6836967D01*
X6786184Y3206967D02*
Y3105400D01*
X7948740Y6123796D02*
Y6276147D01*
X7999523Y6225363D01*
X8050307Y6276147D01*
Y6123796D01*
X8101091D02*
X8151874D01*
X8126483D01*
Y6276147D01*
X8101091Y6250755D01*
X7951430Y4925367D02*
Y5077718D01*
X8002214Y5026935D01*
X8052998Y5077718D01*
Y4925367D01*
X8205348D02*
X8103781D01*
X8205348Y5026935D01*
Y5052326D01*
X8179956Y5077718D01*
X8129173D01*
X8103781Y5052326D01*
X7937980Y3722903D02*
Y3875254D01*
X7988764Y3824470D01*
X8039547Y3875254D01*
Y3722903D01*
X8090331Y3849862D02*
X8115723Y3875254D01*
X8166506D01*
X8191898Y3849862D01*
Y3824470D01*
X8166506Y3799079D01*
X8141114D01*
X8166506D01*
X8191898Y3773687D01*
Y3748295D01*
X8166506Y3722903D01*
X8115723D01*
X8090331Y3748295D01*
X5041016Y3447456D02*
Y3320497D01*
X5066408Y3295105D01*
X5117191D01*
X5142583Y3320497D01*
Y3447456D01*
X5193367Y3295105D02*
X5244150D01*
X5218758D01*
Y3447456D01*
X5193367Y3422064D01*
X5320325Y3295105D02*
X5371109D01*
X5345717D01*
Y3447456D01*
X5320325Y3422064D01*
X5199216Y5968433D02*
X5173824Y5943041D01*
Y5892257D01*
X5199216Y5866866D01*
X5300783D01*
X5326175Y5892257D01*
Y5943041D01*
X5300783Y5968433D01*
X5326175Y6120784D02*
Y6019216D01*
X5224608Y6120784D01*
X5199216D01*
X5173824Y6095392D01*
Y6044608D01*
X5199216Y6019216D01*
Y6171567D02*
X5173824Y6196959D01*
Y6247742D01*
X5199216Y6273134D01*
X5224608D01*
X5250000Y6247742D01*
X5275392Y6273134D01*
X5300783D01*
X5326175Y6247742D01*
Y6196959D01*
X5300783Y6171567D01*
X5275392D01*
X5250000Y6196959D01*
X5224608Y6171567D01*
X5199216D01*
X5250000Y6196959D02*
Y6247742D01*
X5080196Y7285369D02*
X5054804Y7310761D01*
X5004020D01*
X4978629Y7285369D01*
Y7183802D01*
X5004020Y7158410D01*
X5054804D01*
X5080196Y7183802D01*
X5232547Y7158410D02*
X5130979D01*
X5232547Y7259977D01*
Y7285369D01*
X5207155Y7310761D01*
X5156371D01*
X5130979Y7285369D01*
X5384897Y7310761D02*
X5283330D01*
Y7234585D01*
X5334114Y7259977D01*
X5359505D01*
X5384897Y7234585D01*
Y7183802D01*
X5359505Y7158410D01*
X5308722D01*
X5283330Y7183802D01*
X3941249Y7305441D02*
X3890465D01*
X3915857D01*
Y7178482D01*
X3890465Y7153090D01*
X3865074D01*
X3839682Y7178482D01*
X3992032Y7153090D02*
X4042816D01*
X4017424D01*
Y7305441D01*
X3992032Y7280049D01*
X6484190Y4032017D02*
Y3905058D01*
X6509582Y3879666D01*
X6560365D01*
X6585757Y3905058D01*
Y4032017D01*
X6636540Y4006625D02*
X6661932Y4032017D01*
X6712716D01*
X6738108Y4006625D01*
Y3981234D01*
X6712716Y3955842D01*
X6687324D01*
X6712716D01*
X6738108Y3930450D01*
Y3905058D01*
X6712716Y3879666D01*
X6661932D01*
X6636540Y3905058D01*
X3993083Y5028308D02*
Y4901349D01*
X4018475Y4875957D01*
X4069258D01*
X4094650Y4901349D01*
Y5028308D01*
X4247001D02*
X4196217Y5002916D01*
X4145433Y4952133D01*
Y4901349D01*
X4170825Y4875957D01*
X4221609D01*
X4247001Y4901349D01*
Y4926741D01*
X4221609Y4952133D01*
X4145433D01*
X7583041Y4206175D02*
Y4079217D01*
X7608433Y4053825D01*
X7659217D01*
X7684608Y4079217D01*
Y4206175D01*
X7735392Y4180784D02*
X7760784Y4206175D01*
X7811567D01*
X7836959Y4180784D01*
Y4155392D01*
X7811567Y4130000D01*
X7836959Y4104608D01*
Y4079217D01*
X7811567Y4053825D01*
X7760784D01*
X7735392Y4079217D01*
Y4104608D01*
X7760784Y4130000D01*
X7735392Y4155392D01*
Y4180784D01*
X7760784Y4130000D02*
X7811567D01*
X5883041Y4436175D02*
Y4309216D01*
X5908433Y4283825D01*
X5959216D01*
X5984608Y4309216D01*
Y4436175D01*
X6035392D02*
X6136959D01*
Y4410783D01*
X6035392Y4309216D01*
Y4283825D01*
X7583041Y5376175D02*
Y5249217D01*
X7608433Y5223825D01*
X7659217D01*
X7684608Y5249217D01*
Y5376175D01*
X7836959D02*
X7735392D01*
Y5300000D01*
X7786175Y5325392D01*
X7811567D01*
X7836959Y5300000D01*
Y5249217D01*
X7811567Y5223825D01*
X7760784D01*
X7735392Y5249217D01*
X5680968Y6202822D02*
Y6075863D01*
X5706359Y6050471D01*
X5757143D01*
X5782535Y6075863D01*
Y6202822D01*
X5909494Y6050471D02*
Y6202822D01*
X5833318Y6126647D01*
X5934886D01*
X7573041Y6596175D02*
Y6469216D01*
X7598433Y6443825D01*
X7649217D01*
X7674608Y6469216D01*
Y6596175D01*
X7826959Y6443825D02*
X7725392D01*
X7826959Y6545392D01*
Y6570783D01*
X7801567Y6596175D01*
X7750784D01*
X7725392Y6570783D01*
X4098645Y6586716D02*
Y6459757D01*
X4124037Y6434365D01*
X4174820D01*
X4200212Y6459757D01*
Y6586716D01*
X4250996Y6434365D02*
X4301779D01*
X4276387D01*
Y6586716D01*
X4250996Y6561324D01*
X4713041Y3293825D02*
Y3446175D01*
X4789216D01*
X4814608Y3420784D01*
Y3370000D01*
X4789216Y3344608D01*
X4713041D01*
X4763825D02*
X4814608Y3293825D01*
X4865392Y3420784D02*
X4890784Y3446175D01*
X4941567D01*
X4966959Y3420784D01*
Y3395392D01*
X4941567Y3370000D01*
X4916175D01*
X4941567D01*
X4966959Y3344608D01*
Y3319217D01*
X4941567Y3293825D01*
X4890784D01*
X4865392Y3319217D01*
X7123041Y3273825D02*
Y3426175D01*
X7199216D01*
X7224608Y3400783D01*
Y3350000D01*
X7199216Y3324608D01*
X7123041D01*
X7173825D02*
X7224608Y3273825D01*
X7351567D02*
Y3426175D01*
X7275392Y3350000D01*
X7376959D01*
X7143041Y4503825D02*
Y4656175D01*
X7219216D01*
X7244608Y4630783D01*
Y4580000D01*
X7219216Y4554608D01*
X7143041D01*
X7193825D02*
X7244608Y4503825D01*
X7396959D02*
X7295392D01*
X7396959Y4605392D01*
Y4630783D01*
X7371567Y4656175D01*
X7320784D01*
X7295392Y4630783D01*
X7168433Y5573825D02*
Y5726175D01*
X7244608D01*
X7270000Y5700783D01*
Y5650000D01*
X7244608Y5624608D01*
X7168433D01*
X7219216D02*
X7270000Y5573825D01*
X7320784D02*
X7371567D01*
X7346176D01*
Y5726175D01*
X7320784Y5700783D01*
X5144869Y3736410D02*
X5297220D01*
Y3837977D01*
X5144869Y3990328D02*
Y3888761D01*
X5297220D01*
Y3990328D01*
X5221044Y3888761D02*
Y3939544D01*
X5144869Y4041112D02*
X5297220D01*
Y4117287D01*
X5271828Y4142679D01*
X5170261D01*
X5144869Y4117287D01*
Y4041112D01*
X5297220Y4193462D02*
Y4244246D01*
Y4218854D01*
X5144869D01*
X5170261Y4193462D01*
X3853741Y7016709D02*
X3802957D01*
X3828349D01*
Y6889750D01*
X3802957Y6864358D01*
X3777566D01*
X3752174Y6889750D01*
X4006092Y7016709D02*
X3955308Y6991317D01*
X3904525Y6940534D01*
Y6889750D01*
X3929916Y6864358D01*
X3980700D01*
X4006092Y6889750D01*
Y6915142D01*
X3980700Y6940534D01*
X3904525D01*
X5178825Y6403041D02*
X5305783D01*
X5331175Y6428433D01*
Y6479216D01*
X5305783Y6504608D01*
X5178825D01*
X5305783Y6555392D02*
X5331175Y6580783D01*
Y6631567D01*
X5305783Y6656959D01*
X5204216D01*
X5178825Y6631567D01*
Y6580783D01*
X5204216Y6555392D01*
X5229608D01*
X5255000Y6580783D01*
Y6656959D01*
X6288433Y4250783D02*
X6263041Y4276175D01*
X6212258D01*
X6186866Y4250783D01*
Y4149216D01*
X6212258Y4123825D01*
X6263041D01*
X6288433Y4149216D01*
X6440784Y4123825D02*
X6339216D01*
X6440784Y4225392D01*
Y4250783D01*
X6415392Y4276175D01*
X6364608D01*
X6339216Y4250783D01*
X6593134Y4123825D02*
X6491567D01*
X6593134Y4225392D01*
Y4250783D01*
X6567743Y4276175D01*
X6516959D01*
X6491567Y4250783D01*
X5739217Y3983825D02*
X5713825Y3958433D01*
Y3907650D01*
X5739217Y3882258D01*
X5840784D01*
X5866175Y3907650D01*
Y3958433D01*
X5840784Y3983825D01*
X5866175Y4136176D02*
Y4034608D01*
X5764608Y4136176D01*
X5739217D01*
X5713825Y4110784D01*
Y4060000D01*
X5739217Y4034608D01*
X5866175Y4186959D02*
Y4237743D01*
Y4212351D01*
X5713825D01*
X5739217Y4186959D01*
X5999216Y5691129D02*
X5973824Y5665737D01*
Y5614953D01*
X5999216Y5589562D01*
X6100783D01*
X6126175Y5614953D01*
Y5665737D01*
X6100783Y5691129D01*
X6126175Y5741912D02*
Y5792696D01*
Y5767304D01*
X5973824D01*
X5999216Y5741912D01*
X5973824Y5970438D02*
X5999216Y5919655D01*
X6050000Y5868871D01*
X6100783D01*
X6126175Y5894263D01*
Y5945047D01*
X6100783Y5970438D01*
X6075392D01*
X6050000Y5945047D01*
Y5868871D01*
X5429216Y5641129D02*
X5403825Y5615737D01*
Y5564954D01*
X5429216Y5539562D01*
X5530783D01*
X5556175Y5564954D01*
Y5615737D01*
X5530783Y5641129D01*
X5556175Y5691912D02*
Y5742696D01*
Y5717304D01*
X5403825D01*
X5429216Y5691912D01*
X5403825Y5920439D02*
Y5818871D01*
X5480000D01*
X5454608Y5869655D01*
Y5895047D01*
X5480000Y5920439D01*
X5530783D01*
X5556175Y5895047D01*
Y5844263D01*
X5530783Y5818871D01*
X4351129Y3410783D02*
X4325737Y3436175D01*
X4274954D01*
X4249562Y3410783D01*
Y3309216D01*
X4274954Y3283825D01*
X4325737D01*
X4351129Y3309216D01*
X4401912Y3283825D02*
X4452696D01*
X4427304D01*
Y3436175D01*
X4401912Y3410783D01*
X4605047Y3283825D02*
Y3436175D01*
X4528871Y3360000D01*
X4630439D01*
X4911129Y5180784D02*
X4885737Y5206176D01*
X4834953D01*
X4809562Y5180784D01*
Y5079217D01*
X4834953Y5053825D01*
X4885737D01*
X4911129Y5079217D01*
X4961912Y5053825D02*
X5012696D01*
X4987304D01*
Y5206176D01*
X4961912Y5180784D01*
X5088871D02*
X5114263Y5206176D01*
X5165047D01*
X5190438Y5180784D01*
Y5155392D01*
X5165047Y5130000D01*
X5139655D01*
X5165047D01*
X5190438Y5104608D01*
Y5079217D01*
X5165047Y5053825D01*
X5114263D01*
X5088871Y5079217D01*
X5334314Y4536846D02*
X5308922Y4511455D01*
Y4460671D01*
X5334314Y4435279D01*
X5435881D01*
X5461273Y4460671D01*
Y4511455D01*
X5435881Y4536846D01*
X5461273Y4587630D02*
Y4638413D01*
Y4613022D01*
X5308922D01*
X5334314Y4587630D01*
X5461273Y4816156D02*
Y4714589D01*
X5359706Y4816156D01*
X5334314D01*
X5308922Y4790764D01*
Y4739981D01*
X5334314Y4714589D01*
X4003564Y3411227D02*
X3978172Y3385835D01*
Y3335051D01*
X4003564Y3309659D01*
X4105131D01*
X4130523Y3335051D01*
Y3385835D01*
X4105131Y3411227D01*
X4130523Y3462010D02*
Y3512794D01*
Y3487402D01*
X3978172D01*
X4003564Y3462010D01*
X4130523Y3588969D02*
Y3639752D01*
Y3614361D01*
X3978172D01*
X4003564Y3588969D01*
X6986347Y7160397D02*
X6960955Y7135006D01*
Y7084222D01*
X6986347Y7058830D01*
X7087914D01*
X7113306Y7084222D01*
Y7135006D01*
X7087914Y7160397D01*
X6960955Y7312748D02*
X6986347Y7261964D01*
X7037130Y7211181D01*
X7087914D01*
X7113306Y7236573D01*
Y7287356D01*
X7087914Y7312748D01*
X7062522D01*
X7037130Y7287356D01*
Y7211181D01*
X5506589Y6886600D02*
X5481197Y6861209D01*
Y6810425D01*
X5506589Y6785033D01*
X5608156D01*
X5633548Y6810425D01*
Y6861209D01*
X5608156Y6886600D01*
X5481197Y7038951D02*
Y6937384D01*
X5557373D01*
X5531981Y6988167D01*
Y7013559D01*
X5557373Y7038951D01*
X5608156D01*
X5633548Y7013559D01*
Y6962776D01*
X5608156Y6937384D01*
D80*
X4420000Y4113529D02*
G03*
X4420000Y4113529I-30000J0D01*
G01*
D81*
X4250000Y3901029D02*
G03*
X4250000Y3901029I-12500J0D01*
G01*
X4412126Y6795499D02*
G03*
X4412126Y6795499I-12500J0D01*
G01*
X7479667Y5967496D02*
G03*
X7479667Y5967496I-12500J0D01*
G01*
X7479994Y4755752D02*
G03*
X7479994Y4755752I-12500J0D01*
G01*
X7479665Y3570819D02*
G03*
X7479665Y3570819I-12500J0D01*
G01*
D82*
X4513000Y6001500D02*
X4716000D01*
X4936000D02*
X5033000D01*
Y5294500D02*
Y6001500D01*
X4513000Y5294500D02*
X5033000D01*
X4513000D02*
Y6001500D01*
X4105500Y2709573D02*
X4812503D01*
Y3229572D01*
X4105500D02*
X4812503D01*
X4105500Y3132574D02*
Y3229572D01*
Y2709573D02*
Y2912575D01*
X4109623Y7361458D02*
X4869622D01*
Y7066458D02*
Y7106458D01*
X4109623Y7066458D02*
Y7106458D01*
X4869622Y7326457D02*
Y7356460D01*
X4109623Y7326457D02*
Y7356460D01*
X3412998Y5204498D02*
Y5911502D01*
Y5204498D02*
X3933002D01*
Y5911502D01*
X3835999D02*
X3933002D01*
X3412998D02*
X3616000D01*
X3412998Y3204502D02*
Y3911501D01*
Y3204502D02*
X3933002D01*
Y3911501D01*
X3835999D02*
X3933002D01*
X3412998D02*
X3616000D01*
X3412998Y4204500D02*
Y4911499D01*
Y4204500D02*
X3933002D01*
Y4911499D01*
X3835999D02*
X3933002D01*
X3412998D02*
X3616000D01*
D83*
X5763117Y5511872D02*
X6187297D01*
X5763117Y4495872D02*
X6187297D01*
X5929471Y6246500D02*
X6353651D01*
X5929471Y7262500D02*
X6353651D01*
D84*
X7399665Y6044997D02*
Y6074994D01*
Y6324996D02*
Y6354994D01*
X7417166D01*
X7399665Y6044997D02*
X7417166D01*
X7399995Y4833254D02*
Y4863252D01*
Y5113254D02*
Y5143251D01*
X7417496D01*
X7399995Y4833254D02*
X7417496D01*
X7399665Y3648319D02*
Y3678321D01*
Y3928318D02*
Y3958321D01*
X7417166D01*
X7399665Y3648319D02*
X7417166D01*
D85*
X5520000Y5485799D02*
X5604639Y5401160D01*
X5520000D02*
X5604639Y5485799D01*
X5520000Y5443479D02*
X5604639D01*
X5562320Y5401160D02*
Y5485799D01*
X5796256Y7356770D02*
X5880896Y7272130D01*
X5796256D02*
X5880896Y7356770D01*
X5796256Y7314450D02*
X5880896D01*
X5838576Y7272130D02*
Y7356770D01*
%TF.MD5,e34fbc43f686205da132680be6b0b24d*%
M02*
