%TF.GenerationSoftware,Altium Limited,Altium Designer,22.10.1 (41)*%
G04 Layer_Color=0*
%FSLAX45Y45*%
%MOMM*%
%TF.SameCoordinates,C31E8A11-22D9-4D9D-ADA1-1B5FF30F4DDA*%
%TF.FilePolarity,Positive*%
%TF.FileFunction,Plated,1,4,PTH,Drill*%
%TF.Part,Single*%
G01*
G75*
%TA.AperFunction,ComponentDrill*%
%ADD109C,0.85000*%
%ADD110C,1.11000*%
%ADD111C,0.85000*%
%ADD112O,0.50000X1.20000*%
%TA.AperFunction,ViaDrill,NotFilled*%
%ADD113C,0.30000*%
%ADD114C,0.20000*%
%ADD115C,0.50000*%
%ADD116C,0.60000*%
D109*
X4646000Y5837000D02*
D03*
X4900000Y5710000D02*
D03*
X4646000Y5583000D02*
D03*
X4900000Y5456000D02*
D03*
X3800003Y5366001D02*
D03*
X3546003Y5493001D02*
D03*
X3800003Y5620001D02*
D03*
X3546003Y5747001D02*
D03*
X3800003Y3366000D02*
D03*
X3546003Y3493000D02*
D03*
X3800003Y3620000D02*
D03*
X3546003Y3747000D02*
D03*
X3800003Y4365998D02*
D03*
X3546003Y4492998D02*
D03*
X3800003Y4619998D02*
D03*
X3546003Y4746998D02*
D03*
D110*
X6374000Y2810000D02*
D03*
X6120000D02*
D03*
X5866000D02*
D03*
X5524000Y2800000D02*
D03*
X5270000D02*
D03*
X5016000D02*
D03*
D111*
X4651000Y3096572D02*
D03*
X4524000Y2842572D02*
D03*
X4397000Y3096572D02*
D03*
X4270000Y2842572D02*
D03*
D112*
X4819625Y7216460D02*
D03*
X4159626D02*
D03*
D113*
X3676729Y6481136D02*
D03*
X4399237Y4003973D02*
D03*
X7240000Y7030000D02*
D03*
X7160000D02*
D03*
Y7110000D02*
D03*
X7240000D02*
D03*
X7340766Y5059113D02*
D03*
X4813050Y6158656D02*
D03*
X5181506Y4934791D02*
D03*
X4975667Y4934061D02*
D03*
X5189982Y4832657D02*
D03*
X4949072Y6491711D02*
D03*
X5116722Y6846220D02*
D03*
X5423718Y3368865D02*
D03*
X5422430Y3494445D02*
D03*
X5123902Y4203322D02*
D03*
X5245452Y3670403D02*
D03*
X6125665Y3300929D02*
D03*
X4094857Y3823414D02*
D03*
X4611629Y3541475D02*
D03*
X6916306Y5132939D02*
D03*
X5503677Y4035279D02*
D03*
X6178031Y5588885D02*
D03*
X6169593Y4095891D02*
D03*
X6172156Y3900344D02*
D03*
X5191132Y4623935D02*
D03*
X4315469Y3622757D02*
D03*
X6640000Y7090000D02*
D03*
X5476192Y7088551D02*
D03*
X5658490Y7089964D02*
D03*
X6273416Y5872398D02*
D03*
X5621289Y5809172D02*
D03*
X5619177Y5603171D02*
D03*
X6959600Y5694919D02*
D03*
X7041273Y5512002D02*
D03*
X7100000Y5450000D02*
D03*
X6808943Y7270625D02*
D03*
X6357214Y4665819D02*
D03*
X7614266Y5962457D02*
D03*
X7610549Y6415992D02*
D03*
X7614596Y4761631D02*
D03*
X7610685Y5204371D02*
D03*
X7614266Y3546387D02*
D03*
X7611738Y4018490D02*
D03*
X6299388Y6434931D02*
D03*
X7170000Y6740000D02*
D03*
X6304868Y6316537D02*
D03*
X6366765Y5319001D02*
D03*
X7396938Y6335105D02*
D03*
X6885530Y4906474D02*
D03*
X6842264Y4601963D02*
D03*
X7224907Y5785008D02*
D03*
X7223485Y3784304D02*
D03*
X5670554Y4498373D02*
D03*
X5497421Y3880485D02*
D03*
X5766908Y7069943D02*
D03*
X5766140Y6307528D02*
D03*
X5599538Y5321592D02*
D03*
X6196780Y4498575D02*
D03*
X6515916Y7070079D02*
D03*
X7392760Y6077343D02*
D03*
X7537076Y6251757D02*
D03*
X7397044Y4867123D02*
D03*
X7539401Y5042042D02*
D03*
X7172148Y4925431D02*
D03*
X7398845Y3919891D02*
D03*
X7398170Y3682778D02*
D03*
X4174186Y3983058D02*
D03*
X5000115Y6071202D02*
D03*
X3936731Y6481933D02*
D03*
X3808105Y6483447D02*
D03*
X3423732Y6483441D02*
D03*
X5090000Y6070001D02*
D03*
X5000003Y5990001D02*
D03*
X5090000D02*
D03*
X4917755Y4444705D02*
D03*
X5023206Y4661571D02*
D03*
X4352656Y7048348D02*
D03*
X4814428Y7068876D02*
D03*
X4176207D02*
D03*
X4340946Y6616131D02*
D03*
X6959402Y3827226D02*
D03*
X7503312Y3822090D02*
D03*
D114*
X6381905Y4991866D02*
D03*
X6376932Y5127284D02*
D03*
X7619663Y4983344D02*
D03*
X7618447Y6198345D02*
D03*
X7619827Y3803317D02*
D03*
X6387170Y4896641D02*
D03*
Y4825097D02*
D03*
X6510000Y5300000D02*
D03*
D115*
X7390000Y2990000D02*
D03*
Y2890000D02*
D03*
X7190000D02*
D03*
X7290000Y2790000D02*
D03*
Y2890000D02*
D03*
X7190000Y2790000D02*
D03*
X7390000D02*
D03*
X7190000Y2990000D02*
D03*
X7290000D02*
D03*
X7170000Y3220000D02*
D03*
X7280000D02*
D03*
Y3330000D02*
D03*
X7170000D02*
D03*
X7060000D02*
D03*
X6940000D02*
D03*
Y3220000D02*
D03*
X7060000D02*
D03*
X7829225Y3800104D02*
D03*
X7830002Y3670000D02*
D03*
Y6330000D02*
D03*
Y6070001D02*
D03*
X7829225Y6200104D02*
D03*
X7830002Y5120000D02*
D03*
Y4860000D02*
D03*
X7829225Y4990104D02*
D03*
X7830002Y3930000D02*
D03*
D116*
X7997642Y6134257D02*
D03*
X7975001Y3250001D02*
D03*
X7824998D02*
D03*
X7998851Y3733780D02*
D03*
X7998831Y6269680D02*
D03*
X7999999Y4449999D02*
D03*
Y5650001D02*
D03*
X8000589Y5064262D02*
D03*
X7997276Y5536133D02*
D03*
X7998277Y3870858D02*
D03*
X7997703Y4329120D02*
D03*
X7875001Y6749999D02*
D03*
X7999999D02*
D03*
X8001528Y4933671D02*
D03*
%TF.MD5,3b7d788690def3458883a2bdabdb7021*%
M02*
