%TF.GenerationSoftware,Altium Limited,Altium Designer,22.10.1 (41)*%
G04 Layer_Color=8388736*
%FSLAX45Y45*%
%MOMM*%
%TF.SameCoordinates,46D62589-93FC-40D0-8CC9-1CC447A4D7C4*%
%TF.FilePolarity,Negative*%
%TF.FileFunction,Soldermask,Top*%
%TF.Part,Single*%
G01*
G75*
%TA.AperFunction,SMDPad,CuDef*%
%ADD11R,0.95620X1.20620*%
%ADD12R,1.20620X0.95620*%
%ADD14R,1.46170X0.53340*%
%ADD16R,0.75000X1.00000*%
%ADD18R,0.70000X0.70000*%
%ADD19R,0.70000X0.70000*%
%ADD36R,1.00000X0.75000*%
%TA.AperFunction,ComponentPad*%
%ADD72R,1.45800X1.45800*%
%ADD73C,1.45800*%
%ADD74C,1.65000*%
%ADD75R,1.76500X1.76500*%
%ADD76C,1.76500*%
%ADD77R,1.45800X1.45800*%
%ADD78O,1.00000X1.90000*%
%TA.AperFunction,WasherPad*%
%ADD79C,3.10000*%
%TA.AperFunction,SMDPad,CuDef*%
%ADD86R,3.10000X3.10000*%
%ADD87R,1.62500X0.75000*%
%ADD88R,1.05000X1.05000*%
%ADD89O,1.55000X0.65000*%
%ADD90O,0.65000X1.55000*%
%ADD91R,0.84000X2.89000*%
%ADD92R,0.85000X0.70000*%
%TA.AperFunction,ConnectorPad*%
%ADD93R,0.50000X1.45000*%
%ADD94R,1.70000X1.50000*%
%TA.AperFunction,SMDPad,CuDef*%
%ADD95R,2.00000X2.00000*%
%ADD96R,3.20000X4.30000*%
%ADD97R,1.60000X4.80000*%
%ADD98R,1.25000X0.80000*%
%ADD99R,3.10000X3.10000*%
%ADD100R,0.70000X1.35000*%
%TA.AperFunction,ViaPad*%
%ADD101C,1.00320*%
G36*
X7584667Y6364995D02*
Y6314995D01*
X7574667Y6304996D01*
X7559667D01*
X7549667Y6314995D01*
Y6364995D01*
X7559667Y6374995D01*
X7574667D01*
X7584667Y6364995D01*
D02*
G37*
G36*
X7534667D02*
Y6314995D01*
X7524667Y6304996D01*
X7509667D01*
X7499667Y6314995D01*
Y6364995D01*
X7509667Y6374995D01*
X7524667D01*
X7534667Y6364995D01*
D02*
G37*
G36*
X7484667D02*
Y6314995D01*
X7474667Y6304996D01*
X7459667D01*
X7449667Y6314995D01*
Y6364995D01*
X7459667Y6374995D01*
X7474667D01*
X7484667Y6364995D01*
D02*
G37*
G36*
X7449667Y6282495D02*
Y6267495D01*
X7439667Y6257495D01*
X7389667D01*
X7379667Y6267495D01*
Y6282495D01*
X7389667Y6292495D01*
X7439667D01*
X7449667Y6282495D01*
D02*
G37*
G36*
X7707165Y6364995D02*
X7707165Y6334995D01*
X7714665D01*
Y6217496D01*
X7709665Y6212495D01*
X7679665Y6212496D01*
X7674665Y6217495D01*
Y6334995D01*
X7682165D01*
Y6364995D01*
X7687165Y6369995D01*
X7702165D01*
X7707165Y6364995D01*
D02*
G37*
G36*
X7637164D02*
Y6334995D01*
X7644664D01*
X7644664Y6217496D01*
X7639664Y6212495D01*
X7609664Y6212496D01*
X7604664Y6217495D01*
Y6334995D01*
X7612164D01*
Y6364995D01*
X7617164Y6369995D01*
X7632164D01*
X7637164Y6364995D01*
D02*
G37*
G36*
X7449667Y6232496D02*
Y6217496D01*
X7439667Y6207496D01*
X7389667D01*
X7379667Y6217496D01*
Y6232496D01*
X7389667Y6242496D01*
X7439667D01*
X7449667Y6232496D01*
D02*
G37*
G36*
Y6182495D02*
Y6167495D01*
X7439667Y6157495D01*
X7389667D01*
X7379667Y6167495D01*
Y6182495D01*
X7389667Y6192495D01*
X7439667D01*
X7449667Y6182495D01*
D02*
G37*
G36*
Y6132495D02*
Y6117496D01*
X7439667Y6107496D01*
X7389667D01*
X7379667Y6117496D01*
Y6132495D01*
X7389667Y6142495D01*
X7439667D01*
X7449667Y6132495D01*
D02*
G37*
G36*
X7709669Y6187498D02*
X7714669Y6182498D01*
Y6064998D01*
X7707168D01*
Y6034998D01*
X7702168Y6029998D01*
X7687169D01*
X7682169Y6034998D01*
X7682169Y6064998D01*
X7674669D01*
Y6182498D01*
X7679669Y6187498D01*
X7709669Y6187498D01*
D02*
G37*
G36*
X7777167Y6364995D02*
Y6334995D01*
X7784667D01*
Y6287495D01*
X7869667D01*
X7874667Y6282495D01*
Y6267495D01*
X7869667Y6262495D01*
X7784667D01*
Y6237496D01*
X7869667D01*
X7874667Y6232496D01*
Y6217496D01*
X7869667Y6212496D01*
X7784667D01*
Y6187495D01*
X7869667D01*
X7874667Y6182495D01*
Y6167495D01*
X7869667Y6162495D01*
X7784667D01*
Y6137495D01*
X7869667D01*
X7874667Y6132495D01*
Y6117496D01*
X7869667Y6112496D01*
X7784667D01*
Y6064995D01*
X7777167D01*
Y6034996D01*
X7772167Y6029996D01*
X7757167D01*
X7752167Y6034996D01*
Y6064995D01*
X7744667D01*
Y6334995D01*
X7752167D01*
X7752167Y6364995D01*
X7757167Y6369995D01*
X7772167D01*
X7777167Y6364995D01*
D02*
G37*
G36*
X7639667Y6187495D02*
X7644667Y6182496D01*
Y6064995D01*
X7637167D01*
X7637167Y6034996D01*
X7632167Y6029996D01*
X7617167D01*
X7612167Y6034996D01*
X7612167Y6064995D01*
X7604667D01*
Y6182495D01*
X7609667Y6187496D01*
X7639667Y6187495D01*
D02*
G37*
G36*
X7584667Y6084995D02*
Y6034996D01*
X7574667Y6024996D01*
X7559667D01*
X7549667Y6034996D01*
Y6084995D01*
X7559667Y6094995D01*
X7574667D01*
X7584667Y6084995D01*
D02*
G37*
G36*
X7534667D02*
Y6034996D01*
X7524667Y6024996D01*
X7509667D01*
X7499667Y6034996D01*
Y6084995D01*
X7509667Y6094995D01*
X7524667D01*
X7534667Y6084995D01*
D02*
G37*
G36*
X7484667D02*
Y6034996D01*
X7474667Y6024996D01*
X7459667D01*
X7449667Y6034996D01*
Y6084995D01*
X7459667Y6094995D01*
X7474667D01*
X7484667Y6084995D01*
D02*
G37*
G36*
X7584994Y5153252D02*
Y5103252D01*
X7574995Y5093252D01*
X7559994D01*
X7549994Y5103252D01*
Y5153252D01*
X7559994Y5163252D01*
X7574995D01*
X7584994Y5153252D01*
D02*
G37*
G36*
X7534994D02*
Y5103252D01*
X7524994Y5093252D01*
X7509994D01*
X7499994Y5103252D01*
Y5153252D01*
X7509994Y5163252D01*
X7524994D01*
X7534994Y5153252D01*
D02*
G37*
G36*
X7484994D02*
Y5103252D01*
X7474994Y5093252D01*
X7459994D01*
X7449994Y5103252D01*
Y5153252D01*
X7459994Y5163252D01*
X7474994D01*
X7484994Y5153252D01*
D02*
G37*
G36*
X7449994Y5070752D02*
Y5055752D01*
X7439995Y5045752D01*
X7389994D01*
X7379994Y5055752D01*
Y5070752D01*
X7389994Y5080752D01*
X7439995D01*
X7449994Y5070752D01*
D02*
G37*
G36*
X7707493Y5153252D02*
X7707493Y5123252D01*
X7714993D01*
Y5005752D01*
X7709993Y5000751D01*
X7679993Y5000752D01*
X7674993Y5005751D01*
Y5123252D01*
X7682493D01*
Y5153252D01*
X7687493Y5158252D01*
X7702493D01*
X7707493Y5153252D01*
D02*
G37*
G36*
X7637491D02*
Y5123252D01*
X7644991D01*
X7644991Y5005752D01*
X7639991Y5000751D01*
X7609991Y5000752D01*
X7604991Y5005751D01*
Y5123252D01*
X7612491D01*
Y5153252D01*
X7617491Y5158252D01*
X7632491D01*
X7637491Y5153252D01*
D02*
G37*
G36*
X7449994Y5020752D02*
Y5005752D01*
X7439995Y4995752D01*
X7389994D01*
X7379994Y5005752D01*
Y5020752D01*
X7389994Y5030752D01*
X7439995D01*
X7449994Y5020752D01*
D02*
G37*
G36*
Y4970752D02*
Y4955752D01*
X7439995Y4945752D01*
X7389994D01*
X7379994Y4955752D01*
Y4970752D01*
X7389994Y4980752D01*
X7439995D01*
X7449994Y4970752D01*
D02*
G37*
G36*
Y4920752D02*
Y4905752D01*
X7439995Y4895752D01*
X7389994D01*
X7379994Y4905752D01*
Y4920752D01*
X7389994Y4930752D01*
X7439995D01*
X7449994Y4920752D01*
D02*
G37*
G36*
X7709996Y4975754D02*
X7714996Y4970754D01*
Y4853254D01*
X7707496D01*
Y4823254D01*
X7702496Y4818254D01*
X7687496D01*
X7682496Y4823254D01*
X7682496Y4853254D01*
X7674996D01*
Y4970754D01*
X7679996Y4975754D01*
X7709996Y4975754D01*
D02*
G37*
G36*
X7777494Y5153252D02*
Y5123252D01*
X7784994D01*
Y5075752D01*
X7869994D01*
X7874994Y5070752D01*
Y5055752D01*
X7869994Y5050752D01*
X7784994D01*
Y5025752D01*
X7869994D01*
X7874994Y5020752D01*
Y5005752D01*
X7869994Y5000752D01*
X7784994D01*
Y4975752D01*
X7869994D01*
X7874994Y4970752D01*
Y4955752D01*
X7869994Y4950752D01*
X7784994D01*
Y4925752D01*
X7869994D01*
X7874994Y4920752D01*
Y4905752D01*
X7869994Y4900752D01*
X7784994D01*
Y4853252D01*
X7777494D01*
Y4823252D01*
X7772494Y4818252D01*
X7757495D01*
X7752494Y4823252D01*
Y4853252D01*
X7744994D01*
Y5123252D01*
X7752494D01*
X7752495Y5153252D01*
X7757495Y5158252D01*
X7772494D01*
X7777494Y5153252D01*
D02*
G37*
G36*
X7639994Y4975752D02*
X7644994Y4970752D01*
Y4853252D01*
X7637495D01*
X7637494Y4823252D01*
X7632494Y4818252D01*
X7617494D01*
X7612495Y4823252D01*
X7612494Y4853252D01*
X7604994D01*
Y4970752D01*
X7609994Y4975752D01*
X7639994Y4975752D01*
D02*
G37*
G36*
X7584994Y4873252D02*
Y4823252D01*
X7574995Y4813252D01*
X7559994D01*
X7549994Y4823252D01*
Y4873252D01*
X7559994Y4883252D01*
X7574995D01*
X7584994Y4873252D01*
D02*
G37*
G36*
X7534994D02*
Y4823252D01*
X7524994Y4813252D01*
X7509994D01*
X7499994Y4823252D01*
Y4873252D01*
X7509994Y4883252D01*
X7524994D01*
X7534994Y4873252D01*
D02*
G37*
G36*
X7484994D02*
Y4823252D01*
X7474994Y4813252D01*
X7459994D01*
X7449994Y4823252D01*
Y4873252D01*
X7459994Y4883252D01*
X7474994D01*
X7484994Y4873252D01*
D02*
G37*
G36*
X7584665Y3968319D02*
Y3918319D01*
X7574665Y3908319D01*
X7559665D01*
X7549665Y3918319D01*
Y3968319D01*
X7559665Y3978319D01*
X7574665D01*
X7584665Y3968319D01*
D02*
G37*
G36*
X7534665D02*
Y3918319D01*
X7524665Y3908319D01*
X7509665D01*
X7499665Y3918319D01*
Y3968319D01*
X7509665Y3978319D01*
X7524665D01*
X7534665Y3968319D01*
D02*
G37*
G36*
X7484665D02*
Y3918319D01*
X7474665Y3908319D01*
X7459665D01*
X7449665Y3918319D01*
Y3968319D01*
X7459665Y3978319D01*
X7474665D01*
X7484665Y3968319D01*
D02*
G37*
G36*
X7449665Y3885819D02*
Y3870819D01*
X7439665Y3860819D01*
X7389665D01*
X7379665Y3870819D01*
Y3885819D01*
X7389665Y3895819D01*
X7439665D01*
X7449665Y3885819D01*
D02*
G37*
G36*
X7707163Y3968319D02*
X7707163Y3938319D01*
X7714663D01*
Y3820819D01*
X7709663Y3815819D01*
X7679663Y3815819D01*
X7674663Y3820819D01*
Y3938319D01*
X7682163D01*
Y3968319D01*
X7687163Y3973319D01*
X7702163D01*
X7707163Y3968319D01*
D02*
G37*
G36*
X7637162D02*
Y3938319D01*
X7644662D01*
X7644661Y3820819D01*
X7639661Y3815819D01*
X7609661Y3815819D01*
X7604661Y3820819D01*
Y3938319D01*
X7612162D01*
Y3968319D01*
X7617162Y3973319D01*
X7632162D01*
X7637162Y3968319D01*
D02*
G37*
G36*
X7449665Y3835819D02*
Y3820819D01*
X7439665Y3810819D01*
X7389665D01*
X7379665Y3820819D01*
Y3835819D01*
X7389665Y3845819D01*
X7439665D01*
X7449665Y3835819D01*
D02*
G37*
G36*
Y3785819D02*
Y3770819D01*
X7439665Y3760819D01*
X7389665D01*
X7379665Y3770819D01*
Y3785819D01*
X7389665Y3795819D01*
X7439665D01*
X7449665Y3785819D01*
D02*
G37*
G36*
Y3735819D02*
Y3720819D01*
X7439665Y3710819D01*
X7389665D01*
X7379665Y3720819D01*
Y3735819D01*
X7389665Y3745819D01*
X7439665D01*
X7449665Y3735819D01*
D02*
G37*
G36*
X7709666Y3790821D02*
X7714666Y3785821D01*
Y3668321D01*
X7707166D01*
Y3638321D01*
X7702166Y3633321D01*
X7687166D01*
X7682166Y3638321D01*
X7682166Y3668321D01*
X7674666D01*
Y3785821D01*
X7679666Y3790821D01*
X7709666Y3790821D01*
D02*
G37*
G36*
X7777165Y3968319D02*
Y3938319D01*
X7784665D01*
Y3890819D01*
X7869665D01*
X7874665Y3885819D01*
Y3870819D01*
X7869665Y3865819D01*
X7784665D01*
Y3840819D01*
X7869665D01*
X7874665Y3835819D01*
Y3820819D01*
X7869665Y3815819D01*
X7784665D01*
Y3790819D01*
X7869665D01*
X7874665Y3785819D01*
Y3770819D01*
X7869665Y3765819D01*
X7784665D01*
Y3740819D01*
X7869665D01*
X7874665Y3735819D01*
Y3720819D01*
X7869665Y3715819D01*
X7784665D01*
Y3668319D01*
X7777165D01*
Y3638319D01*
X7772165Y3633319D01*
X7757165D01*
X7752165Y3638319D01*
Y3668319D01*
X7744665D01*
Y3938319D01*
X7752165D01*
X7752165Y3968319D01*
X7757165Y3973319D01*
X7772165D01*
X7777165Y3968319D01*
D02*
G37*
G36*
X7639665Y3790819D02*
X7644665Y3785819D01*
Y3668319D01*
X7637165D01*
X7637165Y3638319D01*
X7632165Y3633319D01*
X7617165D01*
X7612165Y3638319D01*
X7612165Y3668319D01*
X7604665D01*
Y3785819D01*
X7609665Y3790819D01*
X7639665Y3790819D01*
D02*
G37*
G36*
X7584665Y3688319D02*
Y3638319D01*
X7574665Y3628319D01*
X7559665D01*
X7549665Y3638319D01*
Y3688319D01*
X7559665Y3698319D01*
X7574665D01*
X7584665Y3688319D01*
D02*
G37*
G36*
X7534665D02*
Y3638319D01*
X7524665Y3628319D01*
X7509665D01*
X7499665Y3638319D01*
Y3688319D01*
X7509665Y3698319D01*
X7524665D01*
X7534665Y3688319D01*
D02*
G37*
G36*
X7484665D02*
Y3638319D01*
X7474665Y3628319D01*
X7459665D01*
X7449665Y3638319D01*
Y3688319D01*
X7459665Y3698319D01*
X7474665D01*
X7484665Y3688319D01*
D02*
G37*
D11*
X5102502Y4939999D02*
D03*
X4897499D02*
D03*
X6607498Y7179999D02*
D03*
X6812502D02*
D03*
X5477498Y7179999D02*
D03*
X5682502D02*
D03*
X4302503Y3730000D02*
D03*
X4097499D02*
D03*
D12*
X5190001Y4547499D02*
D03*
Y4752502D02*
D03*
X5590000Y4102497D02*
D03*
Y3897499D02*
D03*
X6080001Y3887502D02*
D03*
Y4092500D02*
D03*
X5710003Y5607499D02*
D03*
Y5812502D02*
D03*
X6270000Y5794998D02*
D03*
Y5590000D02*
D03*
X4520000Y3537498D02*
D03*
Y3742502D02*
D03*
D14*
X6247683Y5448372D02*
D03*
Y5321372D02*
D03*
Y5194372D02*
D03*
Y5067372D02*
D03*
Y4940372D02*
D03*
Y4813372D02*
D03*
Y4686372D02*
D03*
Y4559372D02*
D03*
X5702731D02*
D03*
Y4686372D02*
D03*
Y4813372D02*
D03*
Y4940372D02*
D03*
Y5067372D02*
D03*
Y5194372D02*
D03*
Y5321372D02*
D03*
Y5448372D02*
D03*
X5869085Y7199000D02*
D03*
Y7072000D02*
D03*
Y6945000D02*
D03*
Y6818000D02*
D03*
Y6691000D02*
D03*
Y6564000D02*
D03*
Y6437000D02*
D03*
Y6310000D02*
D03*
X6414037D02*
D03*
Y6437000D02*
D03*
Y6564000D02*
D03*
Y6691000D02*
D03*
Y6818000D02*
D03*
Y6945000D02*
D03*
Y7072000D02*
D03*
Y7199000D02*
D03*
D16*
X4914930Y3590000D02*
D03*
X4764933D02*
D03*
D18*
X5020000Y6160000D02*
D03*
X4880000D02*
D03*
D19*
X5050000Y6710000D02*
D03*
Y6850000D02*
D03*
D36*
X7247421Y3560055D02*
D03*
Y3710053D02*
D03*
X7252467Y4771844D02*
D03*
Y4921846D02*
D03*
X7254239Y5999997D02*
D03*
Y5850000D02*
D03*
D72*
X4646000Y5837000D02*
D03*
X3546003Y5747001D02*
D03*
Y3747000D02*
D03*
Y4746998D02*
D03*
D73*
X4900000Y5710000D02*
D03*
X4646000Y5583000D02*
D03*
X4900000Y5456000D02*
D03*
X4651000Y3096572D02*
D03*
X4524000Y2842572D02*
D03*
X4397000Y3096572D02*
D03*
X3800003Y5366001D02*
D03*
X3546003Y5493001D02*
D03*
X3800003Y5620001D02*
D03*
Y3366000D02*
D03*
X3546003Y3493000D02*
D03*
X3800003Y3620000D02*
D03*
Y4365998D02*
D03*
X3546003Y4492998D02*
D03*
X3800003Y4619998D02*
D03*
D74*
X4826000Y5977000D02*
D03*
X4130000Y3022572D02*
D03*
X3726002Y5887001D02*
D03*
Y3887000D02*
D03*
Y4886998D02*
D03*
D75*
X6374000Y2810000D02*
D03*
X5524000Y2800000D02*
D03*
D76*
X6120000Y2810000D02*
D03*
X5866000D02*
D03*
X5270000Y2800000D02*
D03*
X5016000D02*
D03*
D77*
X4270000Y2842572D02*
D03*
D78*
X4819625Y7216460D02*
D03*
X4159626D02*
D03*
D79*
X7999999Y2899999D02*
D03*
Y7100001D02*
D03*
X3599998Y2899999D02*
D03*
Y7100001D02*
D03*
D86*
X7290000Y2889999D02*
D03*
X6790000D02*
D03*
D87*
X5529058Y3750501D02*
D03*
Y3623501D02*
D03*
Y3496501D02*
D03*
Y3369501D02*
D03*
X6071458D02*
D03*
Y3496501D02*
D03*
Y3623501D02*
D03*
Y3750501D02*
D03*
D88*
X5244932Y3590000D02*
D03*
X5094935D02*
D03*
D89*
X4177502Y4043528D02*
D03*
Y4123527D02*
D03*
Y4203527D02*
D03*
Y4283527D02*
D03*
Y4363527D02*
D03*
Y4443532D02*
D03*
Y4523532D02*
D03*
Y4603532D02*
D03*
X5022499D02*
D03*
Y4523532D02*
D03*
Y4443532D02*
D03*
Y4363527D02*
D03*
Y4283527D02*
D03*
Y4203527D02*
D03*
Y4123527D02*
D03*
Y4043528D02*
D03*
D90*
X4320002Y4746031D02*
D03*
X4400001D02*
D03*
X4640001D02*
D03*
X4720001D02*
D03*
X4800001D02*
D03*
X4880000D02*
D03*
Y3901029D02*
D03*
X4800001D02*
D03*
X4720001D02*
D03*
X4640001D02*
D03*
X4560001D02*
D03*
X4480001D02*
D03*
X4400001D02*
D03*
X4320002D02*
D03*
X4480001Y4746031D02*
D03*
X4560001D02*
D03*
D91*
X3679134Y6654033D02*
D03*
Y6247033D02*
D03*
X3552134Y6654033D02*
D03*
Y6247033D02*
D03*
X3425134Y6654033D02*
D03*
Y6247033D02*
D03*
X3933134Y6654033D02*
D03*
Y6247033D02*
D03*
X3806134Y6654033D02*
D03*
Y6247033D02*
D03*
D92*
X4399625Y6710497D02*
D03*
Y6615501D02*
D03*
Y6520500D02*
D03*
X4644624D02*
D03*
Y6710497D02*
D03*
D93*
X4619625Y6948957D02*
D03*
X4554626D02*
D03*
X4489623D02*
D03*
X4424624D02*
D03*
X4359626D02*
D03*
D94*
X4809622Y6971462D02*
D03*
X4169623D02*
D03*
D95*
X4609622Y7216460D02*
D03*
X4369623D02*
D03*
D96*
X6641902Y3570000D02*
D03*
D97*
X6411900D02*
D03*
D98*
X6959402Y3760500D02*
D03*
Y3633500D02*
D03*
Y3506500D02*
D03*
Y3379500D02*
D03*
D99*
X8065582Y3499998D02*
D03*
Y4100002D02*
D03*
Y4700001D02*
D03*
Y5300000D02*
D03*
Y5899998D02*
D03*
Y6500002D02*
D03*
D100*
X5044998Y6585002D02*
D03*
X4950002D02*
D03*
X4855001D02*
D03*
Y6335000D02*
D03*
X5044998D02*
D03*
D101*
X7390000Y2990000D02*
D03*
Y2890000D02*
D03*
X7190000D02*
D03*
X7290000Y2790000D02*
D03*
Y2890000D02*
D03*
X7190000Y2790000D02*
D03*
X7390000D02*
D03*
X7190000Y2990000D02*
D03*
X7290000D02*
D03*
%TF.MD5,e260e0d85ef3ae6cc83754002eab36cc*%
M02*
