%TF.GenerationSoftware,Altium Limited,Altium Designer,22.10.1 (41)*%
G04 Layer_Color=8421504*
%FSLAX45Y45*%
%MOMM*%
%TF.SameCoordinates,C31E8A11-22D9-4D9D-ADA1-1B5FF30F4DDA*%
%TF.FilePolarity,Positive*%
%TF.FileFunction,Paste,Top*%
%TF.Part,Single*%
G01*
G75*
%TA.AperFunction,SMDPad,CuDef*%
%ADD11R,0.95620X1.20620*%
%ADD12R,1.20620X0.95620*%
%ADD13R,3.00000X3.00000*%
%ADD14R,1.46170X0.53340*%
%ADD15R,1.52500X0.65000*%
%ADD16R,0.75000X1.00000*%
%ADD17R,0.95000X0.95000*%
%ADD18R,0.70000X0.70000*%
%ADD19R,0.70000X0.70000*%
%ADD20O,1.45000X0.55000*%
%ADD21O,0.55000X1.45000*%
%ADD22R,0.74000X2.79000*%
%ADD23R,0.75000X0.60000*%
%TA.AperFunction,ConnectorPad*%
%ADD24R,0.40000X1.35000*%
%ADD25R,1.60000X1.40000*%
%TA.AperFunction,SMDPad,CuDef*%
%ADD26R,1.90000X1.90000*%
%TA.AperFunction,SMDPad,SMDef*%
%ADD27R,0.60000X0.25000*%
%ADD28R,0.25000X0.60000*%
%TA.AperFunction,SMDPad,CuDef*%
%ADD32R,3.10000X4.20000*%
%ADD33R,1.50000X4.70000*%
%ADD34R,1.15000X0.70000*%
%ADD35R,3.00000X3.00000*%
%ADD36R,1.00000X0.75000*%
%ADD37R,0.60000X1.25000*%
G36*
X7707165Y6364995D02*
X7707165Y6334995D01*
X7714665D01*
Y6217496D01*
X7709665Y6212495D01*
X7679665Y6212496D01*
X7674665Y6217495D01*
Y6334995D01*
X7682165D01*
Y6364995D01*
X7687165Y6369995D01*
X7702165D01*
X7707165Y6364995D01*
D02*
G37*
G36*
X7637164D02*
Y6334995D01*
X7644664D01*
X7644664Y6217496D01*
X7639664Y6212495D01*
X7609664Y6212496D01*
X7604664Y6217495D01*
Y6334995D01*
X7612164D01*
Y6364995D01*
X7617164Y6369995D01*
X7632164D01*
X7637164Y6364995D01*
D02*
G37*
G36*
X7709669Y6187498D02*
X7714669Y6182498D01*
Y6064998D01*
X7707168D01*
Y6034998D01*
X7702168Y6029998D01*
X7687169D01*
X7682169Y6034998D01*
X7682169Y6064998D01*
X7674669D01*
Y6182498D01*
X7679669Y6187498D01*
X7709669Y6187498D01*
D02*
G37*
G36*
X7777167Y6364995D02*
Y6334995D01*
X7784667D01*
Y6287495D01*
X7869667D01*
X7874667Y6282495D01*
Y6267495D01*
X7869667Y6262495D01*
X7784667D01*
Y6237496D01*
X7869667D01*
X7874667Y6232496D01*
Y6217496D01*
X7869667Y6212496D01*
X7784667D01*
Y6187495D01*
X7869667D01*
X7874667Y6182495D01*
Y6167495D01*
X7869667Y6162495D01*
X7784667D01*
Y6137495D01*
X7869667D01*
X7874667Y6132495D01*
Y6117496D01*
X7869667Y6112496D01*
X7784667D01*
Y6064995D01*
X7777167D01*
Y6034996D01*
X7772167Y6029996D01*
X7757167D01*
X7752167Y6034996D01*
Y6064995D01*
X7744667D01*
Y6334995D01*
X7752167D01*
X7752167Y6364995D01*
X7757167Y6369995D01*
X7772167D01*
X7777167Y6364995D01*
D02*
G37*
G36*
X7639667Y6187495D02*
X7644667Y6182496D01*
Y6064995D01*
X7637167D01*
X7637167Y6034996D01*
X7632167Y6029996D01*
X7617167D01*
X7612167Y6034996D01*
X7612167Y6064995D01*
X7604667D01*
Y6182495D01*
X7609667Y6187496D01*
X7639667Y6187495D01*
D02*
G37*
G36*
X7707493Y5153252D02*
X7707493Y5123252D01*
X7714993D01*
Y5005752D01*
X7709993Y5000751D01*
X7679993Y5000752D01*
X7674993Y5005751D01*
Y5123252D01*
X7682493D01*
Y5153252D01*
X7687493Y5158252D01*
X7702493D01*
X7707493Y5153252D01*
D02*
G37*
G36*
X7637491D02*
Y5123252D01*
X7644991D01*
X7644991Y5005752D01*
X7639991Y5000751D01*
X7609991Y5000752D01*
X7604991Y5005751D01*
Y5123252D01*
X7612491D01*
Y5153252D01*
X7617491Y5158252D01*
X7632491D01*
X7637491Y5153252D01*
D02*
G37*
G36*
X7709996Y4975754D02*
X7714996Y4970754D01*
Y4853254D01*
X7707496D01*
Y4823254D01*
X7702496Y4818254D01*
X7687496D01*
X7682496Y4823254D01*
X7682496Y4853254D01*
X7674996D01*
Y4970754D01*
X7679996Y4975754D01*
X7709996Y4975754D01*
D02*
G37*
G36*
X7777494Y5153252D02*
Y5123252D01*
X7784994D01*
Y5075752D01*
X7869994D01*
X7874994Y5070752D01*
Y5055752D01*
X7869994Y5050752D01*
X7784994D01*
Y5025752D01*
X7869994D01*
X7874994Y5020752D01*
Y5005752D01*
X7869994Y5000752D01*
X7784994D01*
Y4975752D01*
X7869994D01*
X7874994Y4970752D01*
Y4955752D01*
X7869994Y4950752D01*
X7784994D01*
Y4925752D01*
X7869994D01*
X7874994Y4920752D01*
Y4905752D01*
X7869994Y4900752D01*
X7784994D01*
Y4853252D01*
X7777494D01*
Y4823252D01*
X7772494Y4818252D01*
X7757495D01*
X7752494Y4823252D01*
Y4853252D01*
X7744994D01*
Y5123252D01*
X7752494D01*
X7752495Y5153252D01*
X7757495Y5158252D01*
X7772494D01*
X7777494Y5153252D01*
D02*
G37*
G36*
X7639994Y4975752D02*
X7644994Y4970752D01*
Y4853252D01*
X7637495D01*
X7637494Y4823252D01*
X7632494Y4818252D01*
X7617494D01*
X7612495Y4823252D01*
X7612494Y4853252D01*
X7604994D01*
Y4970752D01*
X7609994Y4975752D01*
X7639994Y4975752D01*
D02*
G37*
G36*
X7707163Y3968319D02*
X7707163Y3938319D01*
X7714663D01*
Y3820819D01*
X7709663Y3815819D01*
X7679663Y3815819D01*
X7674663Y3820819D01*
Y3938319D01*
X7682163D01*
Y3968319D01*
X7687163Y3973319D01*
X7702163D01*
X7707163Y3968319D01*
D02*
G37*
G36*
X7637162D02*
Y3938319D01*
X7644662D01*
X7644661Y3820819D01*
X7639661Y3815819D01*
X7609661Y3815819D01*
X7604661Y3820819D01*
Y3938319D01*
X7612162D01*
Y3968319D01*
X7617162Y3973319D01*
X7632162D01*
X7637162Y3968319D01*
D02*
G37*
G36*
X7709666Y3790821D02*
X7714666Y3785821D01*
Y3668321D01*
X7707166D01*
Y3638321D01*
X7702166Y3633321D01*
X7687166D01*
X7682166Y3638321D01*
X7682166Y3668321D01*
X7674666D01*
Y3785821D01*
X7679666Y3790821D01*
X7709666Y3790821D01*
D02*
G37*
G36*
X7777165Y3968319D02*
Y3938319D01*
X7784665D01*
Y3890819D01*
X7869665D01*
X7874665Y3885819D01*
Y3870819D01*
X7869665Y3865819D01*
X7784665D01*
Y3840819D01*
X7869665D01*
X7874665Y3835819D01*
Y3820819D01*
X7869665Y3815819D01*
X7784665D01*
Y3790819D01*
X7869665D01*
X7874665Y3785819D01*
Y3770819D01*
X7869665Y3765819D01*
X7784665D01*
Y3740819D01*
X7869665D01*
X7874665Y3735819D01*
Y3720819D01*
X7869665Y3715819D01*
X7784665D01*
Y3668319D01*
X7777165D01*
Y3638319D01*
X7772165Y3633319D01*
X7757165D01*
X7752165Y3638319D01*
Y3668319D01*
X7744665D01*
Y3938319D01*
X7752165D01*
X7752165Y3968319D01*
X7757165Y3973319D01*
X7772165D01*
X7777165Y3968319D01*
D02*
G37*
G36*
X7639665Y3790819D02*
X7644665Y3785819D01*
Y3668319D01*
X7637165D01*
X7637165Y3638319D01*
X7632165Y3633319D01*
X7617165D01*
X7612165Y3638319D01*
X7612165Y3668319D01*
X7604665D01*
Y3785819D01*
X7609665Y3790819D01*
X7639665Y3790819D01*
D02*
G37*
D11*
X5102502Y4939999D02*
D03*
X4897499D02*
D03*
X6607498Y7179999D02*
D03*
X6812502D02*
D03*
X5477498Y7179999D02*
D03*
X5682502D02*
D03*
X4302503Y3730000D02*
D03*
X4097499D02*
D03*
D12*
X5190001Y4547499D02*
D03*
Y4752502D02*
D03*
X5590000Y4102497D02*
D03*
Y3897499D02*
D03*
X6080001Y3887502D02*
D03*
Y4092500D02*
D03*
X5710003Y5607499D02*
D03*
Y5812502D02*
D03*
X6270000Y5794998D02*
D03*
Y5590000D02*
D03*
X4520000Y3537498D02*
D03*
Y3742502D02*
D03*
D13*
X7290000Y2889999D02*
D03*
X6790000D02*
D03*
D14*
X6247683Y5448372D02*
D03*
Y5321372D02*
D03*
Y5194372D02*
D03*
Y5067372D02*
D03*
Y4940372D02*
D03*
Y4813372D02*
D03*
Y4686372D02*
D03*
Y4559372D02*
D03*
X5702731D02*
D03*
Y4686372D02*
D03*
Y4813372D02*
D03*
Y4940372D02*
D03*
Y5067372D02*
D03*
Y5194372D02*
D03*
Y5321372D02*
D03*
Y5448372D02*
D03*
X5869085Y7199000D02*
D03*
Y7072000D02*
D03*
Y6945000D02*
D03*
Y6818000D02*
D03*
Y6691000D02*
D03*
Y6564000D02*
D03*
Y6437000D02*
D03*
Y6310000D02*
D03*
X6414037D02*
D03*
Y6437000D02*
D03*
Y6564000D02*
D03*
Y6691000D02*
D03*
Y6818000D02*
D03*
Y6945000D02*
D03*
Y7072000D02*
D03*
Y7199000D02*
D03*
D15*
X5529058Y3750501D02*
D03*
Y3623501D02*
D03*
Y3496501D02*
D03*
Y3369501D02*
D03*
X6071458D02*
D03*
Y3496501D02*
D03*
Y3623501D02*
D03*
Y3750501D02*
D03*
D16*
X4914930Y3590000D02*
D03*
X4764933D02*
D03*
D17*
X5244932D02*
D03*
X5094935D02*
D03*
D18*
X5020000Y6160000D02*
D03*
X4880000D02*
D03*
D19*
X5050000Y6710000D02*
D03*
Y6850000D02*
D03*
D20*
X4177502Y4043528D02*
D03*
Y4123527D02*
D03*
Y4203527D02*
D03*
Y4283527D02*
D03*
Y4363527D02*
D03*
Y4443532D02*
D03*
Y4523532D02*
D03*
Y4603532D02*
D03*
X5022499D02*
D03*
Y4523532D02*
D03*
Y4443532D02*
D03*
Y4363527D02*
D03*
Y4283527D02*
D03*
Y4203527D02*
D03*
Y4123527D02*
D03*
Y4043528D02*
D03*
D21*
X4320002Y4746031D02*
D03*
X4400001D02*
D03*
X4640001D02*
D03*
X4720001D02*
D03*
X4800001D02*
D03*
X4880000D02*
D03*
Y3901029D02*
D03*
X4800001D02*
D03*
X4720001D02*
D03*
X4640001D02*
D03*
X4560001D02*
D03*
X4480001D02*
D03*
X4400001D02*
D03*
X4320002D02*
D03*
X4480001Y4746031D02*
D03*
X4560001D02*
D03*
D22*
X3679134Y6654033D02*
D03*
Y6247033D02*
D03*
X3552134Y6654033D02*
D03*
Y6247033D02*
D03*
X3425134Y6654033D02*
D03*
Y6247033D02*
D03*
X3933134Y6654033D02*
D03*
Y6247033D02*
D03*
X3806134Y6654033D02*
D03*
Y6247033D02*
D03*
D23*
X4399625Y6710497D02*
D03*
Y6615501D02*
D03*
Y6520500D02*
D03*
X4644624D02*
D03*
Y6710497D02*
D03*
D24*
X4619625Y6948957D02*
D03*
X4554626D02*
D03*
X4489623D02*
D03*
X4424624D02*
D03*
X4359626D02*
D03*
D25*
X4809622Y6971462D02*
D03*
X4169623D02*
D03*
D26*
X4609622Y7216460D02*
D03*
X4369623D02*
D03*
D27*
X7414666Y6124997D02*
D03*
Y6174994D02*
D03*
Y6224996D02*
D03*
Y6274994D02*
D03*
X7414997Y4913254D02*
D03*
Y4963251D02*
D03*
Y5013254D02*
D03*
Y5063251D02*
D03*
X7414666Y3728319D02*
D03*
Y3778321D02*
D03*
Y3828318D02*
D03*
Y3878321D02*
D03*
D28*
X7467168Y6339997D02*
D03*
X7517166D02*
D03*
X7567168D02*
D03*
Y6059998D02*
D03*
X7517166D02*
D03*
X7467168D02*
D03*
X7467493Y5128250D02*
D03*
X7517496D02*
D03*
X7567493D02*
D03*
Y4848250D02*
D03*
X7517496D02*
D03*
X7467493D02*
D03*
X7467163Y3943320D02*
D03*
X7517166D02*
D03*
X7567163D02*
D03*
Y3663320D02*
D03*
X7517166D02*
D03*
X7467163D02*
D03*
D32*
X6641902Y3570000D02*
D03*
D33*
X6411900D02*
D03*
D34*
X6959402Y3760500D02*
D03*
Y3633500D02*
D03*
Y3506500D02*
D03*
Y3379500D02*
D03*
D35*
X8065582Y3499998D02*
D03*
Y4100002D02*
D03*
Y4700001D02*
D03*
Y5300000D02*
D03*
Y5899998D02*
D03*
Y6500002D02*
D03*
D36*
X7247421Y3560055D02*
D03*
Y3710053D02*
D03*
X7252467Y4771844D02*
D03*
Y4921846D02*
D03*
X7254239Y5999997D02*
D03*
Y5850000D02*
D03*
D37*
X5044998Y6585002D02*
D03*
X4950002D02*
D03*
X4855001D02*
D03*
Y6335000D02*
D03*
X5044998D02*
D03*
%TF.MD5,636451de9850f9d5ae42c5a1195dbe3c*%
M02*
