%TF.GenerationSoftware,Altium Limited,Altium Designer,22.10.1 (41)*%
G04 Layer_Color=128*
%FSLAX45Y45*%
%MOMM*%
%TF.SameCoordinates,46D62589-93FC-40D0-8CC9-1CC447A4D7C4*%
%TF.FilePolarity,Positive*%
%TF.FileFunction,Paste,Bot*%
%TF.Part,Single*%
G01*
G75*
%TA.AperFunction,SMDPad,CuDef*%
%ADD11R,0.95620X1.20620*%
%ADD12R,1.20620X0.95620*%
%ADD54R,0.95814X0.91213*%
%ADD55R,0.95000X0.80000*%
%ADD56R,2.00000X1.65000*%
%ADD57R,5.60000X1.65000*%
%ADD58R,1.55395X1.70620*%
%ADD59R,0.30000X0.47500*%
%ADD60R,0.60000X0.80000*%
%ADD61R,1.40000X1.50000*%
D11*
X6692500Y5131223D02*
D03*
X6487500D02*
D03*
D12*
X6406544Y5424340D02*
D03*
Y5629339D02*
D03*
D54*
X6847301Y5617190D02*
D03*
X6992699D02*
D03*
D55*
X6920000Y5335000D02*
D03*
Y5205000D02*
D03*
D56*
X7020000Y6773000D02*
D03*
Y7068000D02*
D03*
D57*
X6680000Y6395074D02*
D03*
Y5980074D02*
D03*
D58*
X6462388Y4860888D02*
D03*
X6677613D02*
D03*
D59*
X6754782Y5302759D02*
D03*
X6704781D02*
D03*
X6654781D02*
D03*
X6604781D02*
D03*
Y5470358D02*
D03*
X6654781D02*
D03*
X6704781D02*
D03*
X6754782D02*
D03*
D60*
X6859806Y5440000D02*
D03*
X6989806D02*
D03*
D61*
X7833482Y4027063D02*
D03*
X7643485D02*
D03*
X7833482Y3427065D02*
D03*
X7643485D02*
D03*
X7833482Y3727064D02*
D03*
X7643485D02*
D03*
X7833482Y4327068D02*
D03*
X7643485D02*
D03*
X7836891Y4614692D02*
D03*
X7646888D02*
D03*
X7836891Y4914692D02*
D03*
X7646888D02*
D03*
X7836891Y5214691D02*
D03*
X7646888D02*
D03*
X7841889Y5514691D02*
D03*
X7651887D02*
D03*
X7836891Y5803829D02*
D03*
X7646888D02*
D03*
X7836891Y6103833D02*
D03*
X7646888D02*
D03*
X7836891Y6403833D02*
D03*
X7646888D02*
D03*
X7836891Y6703832D02*
D03*
X7646888D02*
D03*
%TF.MD5,9e446c840d3c2961c86aa744162cb417*%
M02*
